<?xml version="1.0" encoding="UTF-8"?>
<svg xmlns="http://www.w3.org/2000/svg" xmlns:xlink="http://www.w3.org/1999/xlink" width="536.97pt" height="557.69pt" viewBox="0 0 536.97 557.69" version="1.1">
<defs>
<clipPath id="clip1">
  <path d="M 0 0 L 536.96875 0 L 536.96875 557.691406 L 0 557.691406 Z M 0 0 "/>
</clipPath>
</defs>
<g id="surface1">
<path style=" stroke:none;fill-rule:nonzero;fill:rgb(11.799622%,7.499695%,5.899048%);fill-opacity:1;" d="M 280.546875 349.789063 C 279.328125 351.089844 277.996094 352.507813 277.863281 354.339844 C 277.648438 356.910156 277.773438 359.640625 276.296875 361.921875 C 278.300781 361.769531 281.023438 362.238281 282.050781 360.089844 C 283.09375 356.644531 281.914063 352.996094 280.546875 349.789063 M 197.191406 262.101563 C 197.921875 264.675781 199.636719 266.851563 200.78125 269.257813 C 203.183594 274.136719 206.566406 278.46875 209.386719 283.117188 C 219.367188 298.605469 229.578125 313.953125 239.65625 329.386719 C 244.363281 336.242188 265.542969 371.171875 267.273438 372.582031 C 267.996094 362.796875 269.78125 353.113281 272.148438 343.570313 C 272.648438 341.371094 273.382813 338.589844 271.339844 336.882813 C 268.550781 334.34375 264.371094 334.578125 260.789063 334.425781 C 259.367188 334.507813 257.832031 333.273438 258.738281 331.894531 C 260.933594 327.113281 263.675781 322.570313 266.234375 317.960938 C 267.894531 315.246094 269.777344 311.824219 273.417969 311.386719 C 277.492188 311.191406 281.714844 312.28125 285.066406 314.515625 C 287.628906 316.113281 290.761719 316.546875 293.722656 317.042969 C 294.992188 316.832031 296.785156 315.898438 296.183594 314.40625 C 294.902344 312.574219 293.1875 311.042969 291.488281 309.570313 C 287.113281 306.195313 281.199219 306.226563 276.0625 304.582031 C 277.605469 303.238281 279.722656 302.886719 281.5 301.90625 C 274.421875 299.171875 269.164063 293.507813 262.109375 290.738281 C 260.910156 290.242188 259.992188 289.351563 258.992188 288.589844 C 254.042969 284.683594 248.136719 282.078125 242.195313 279.832031 C 230.101563 275.453125 218.625 269.339844 208.757813 261.347656 C 204.941406 258.246094 202.011719 254.332031 199.054688 250.519531 C 196.84375 253.929688 196.046875 258.21875 197.191406 262.101563 M 222.832031 260.578125 C 225.394531 262.527344 228.460938 264.300781 231.851563 264.230469 C 232.089844 263.941406 232.550781 263.347656 232.777344 263.054688 C 230.949219 259.105469 229.007813 254.609375 224.632813 252.660156 C 222.589844 251.828125 219.09375 251.828125 219.519531 248.253906 C 218.929688 251.296875 219.707031 258.957031 222.832031 260.578125 M 276.867188 223.492188 C 276.984375 224.140625 277.117188 224.789063 277.246094 225.449219 C 278.933594 225.6875 280.957031 225.0625 280.601563 223.039063 C 279.324219 222.929688 278.066406 223.078125 276.867188 223.492188 M 217.296875 47.992188 C 210.714844 50.609375 204.296875 53.820313 198.90625 58.316406 C 196.90625 60.167969 194.828125 62.054688 193.59375 64.476563 C 191.695313 67.832031 191.1875 71.707031 191.105469 75.464844 C 190.851563 77.785156 193.304688 79.105469 194.074219 81.089844 C 196.175781 87.949219 196.574219 95.117188 197.472656 102.171875 C 196.898438 103.765625 195.636719 104.980469 194.789063 106.417969 C 194.699219 107.789063 195.792969 108.875 196.371094 110.050781 C 196.417969 107.871094 196.542969 105.332031 198.59375 103.941406 C 202.214844 101.210938 203.457031 96.730469 205.765625 93.164063 C 208.324219 90.117188 212.726563 90.75 216.308594 91.199219 C 219.09375 91.410156 221.21875 93.609375 224.0625 93.589844 C 229.601563 93.566406 234.707031 90.632813 240.300781 91.152344 C 247.515625 91.578125 253.714844 95.554688 259.636719 99.117188 C 261.816406 101.445313 263.386719 104.46875 263.519531 107.628906 C 263.613281 110.105469 263.492188 112.582031 263.40625 115.058594 C 263.398438 118.242188 260.378906 120.902344 257.175781 121.300781 C 255.753906 121.371094 254.964844 120.128906 253.871094 119.523438 C 251.390625 118.050781 248.753906 120.261719 246.117188 119.875 C 242.617188 119.789063 240.285156 116.890625 238.332031 114.488281 C 237.128906 116.699219 235.773438 118.996094 233.480469 120.347656 C 230.660156 122.117188 227.222656 122.464844 223.945313 122.785156 C 226.113281 123.25 228.316406 123.671875 230.550781 123.644531 C 232.980469 123.714844 235.3125 122.902344 237.734375 122.835938 C 237.9375 123.234375 238.339844 124.035156 238.542969 124.4375 C 237.960938 125.085938 237.519531 125.933594 236.652344 126.28125 C 229.386719 128.824219 221.933594 131.109375 214.203125 131.929688 C 212.417969 132.304688 211.128906 130.980469 210.375 129.636719 C 207.730469 128.945313 204.804688 128.988281 202.46875 127.457031 C 199.164063 125.707031 196.601563 122.90625 194.859375 119.75 C 194.078125 118 192.902344 115.777344 194.554688 114.117188 C 193.5 113.921875 192.417969 113.84375 191.359375 113.695313 C 191.320313 116.679688 188.304688 118.390625 187.683594 121.167969 C 186.777344 124.4375 187.71875 127.816406 187.210938 131.121094 C 187.058594 132.167969 186.988281 133.238281 187.261719 134.285156 C 189.273438 134.675781 190.894531 135.847656 191.734375 137.640625 C 193.207031 139.3125 192.824219 141.515625 192.941406 143.527344 C 194.378906 145.820313 196.230469 147.90625 197.121094 150.476563 C 199.238281 156.671875 198.976563 163.296875 199.6875 169.703125 C 200.359375 173.175781 202.613281 176.085938 203.808594 179.378906 C 204.410156 180.777344 204.753906 182.496094 206.328125 183.234375 C 213.59375 187.3125 222.828125 189.839844 226.929688 197.492188 L 229.390625 201.550781 C 230.675781 202.550781 232.453125 202.730469 233.9375 203.398438 C 235.472656 208.351563 235.644531 214.402344 240.300781 217.828125 C 244.253906 220.1875 248.863281 221.277344 253.300781 222.5 C 255.238281 222.878906 256.257813 220.910156 257.917969 220.519531 C 262.429688 220.753906 267.074219 221.957031 271.535156 220.699219 C 274.511719 219.914063 276.101563 216.550781 279.394531 216.582031 C 281.921875 216.730469 283.589844 218.695313 285.550781 219.957031 C 287.886719 221.527344 290.859375 221.679688 293.617188 221.894531 C 297.902344 222.140625 302.476563 222.527344 306.441406 220.644531 C 309.417969 219.484375 310.890625 216.578125 312.753906 214.292969 C 314.550781 212.671875 317.351563 211.796875 318.003906 209.273438 C 318.960938 206.839844 317.089844 204.5 317.453125 202.039063 C 319.644531 201.792969 322.246094 202.578125 323.949219 200.847656 C 327.535156 197.78125 326.496094 192.472656 329.300781 188.949219 C 330.902344 187.308594 333.339844 187.042969 335.566406 186.996094 C 336.984375 183.742188 338.105469 180.382813 339.019531 176.964844 C 340.015625 172.957031 342.523438 169.375 342.730469 165.175781 C 343.023438 159.222656 342.769531 153.246094 343.148438 147.292969 C 343.34375 143.320313 346.183594 140.035156 346.535156 136.09375 C 347.113281 133.164063 346.066406 130.292969 345.484375 127.445313 C 344.019531 121.390625 343.011719 115.152344 340.296875 109.449219 C 341.355469 113.292969 339.976563 117.363281 337.898438 120.671875 C 335.652344 123.640625 331.535156 123.675781 328.285156 124.980469 C 326.371094 125.625 324.972656 127.070313 323.617188 128.429688 C 316.824219 126.4375 309.703125 125.785156 302.859375 124.027344 C 301.277344 123.695313 300.039063 122.609375 299.285156 121.285156 C 299.472656 120.902344 299.851563 120.128906 300.039063 119.746094 C 301.375 119.207031 302.808594 119.121094 304.195313 119.539063 C 308.480469 120.128906 313.332031 121.441406 317.246094 118.976563 C 314.027344 117.671875 310.644531 119.402344 307.347656 118.933594 C 304.945313 118.242188 302.730469 116.886719 300.15625 116.773438 C 296.808594 116.425781 293.742188 118.09375 290.441406 118.253906 C 288.429688 118.359375 286.476563 118.824219 284.546875 119.367188 C 282.808594 119.3125 281.933594 117.558594 281.296875 116.261719 C 279.472656 111.363281 278.742188 106.105469 279.101563 100.925781 C 279.253906 99.460938 279.507813 97.8125 280.671875 96.742188 C 284.242188 95.089844 287.828125 93.417969 291.640625 92.347656 C 294.894531 91.390625 298.269531 92.703125 301.578125 92.183594 C 309.3125 91.152344 317.214844 89.546875 325.003906 91.046875 C 327.933594 91.4375 330.628906 92.632813 333.378906 93.597656 C 334.160156 93.429688 334.933594 93.261719 335.722656 93.101563 C 333.417969 88.558594 336.753906 83.789063 335.75 79.085938 C 333.617188 70.046875 326.011719 63.113281 317.539063 59.089844 C 312.96875 57.136719 307.769531 57.203125 303.171875 55.339844 C 300.625 53.976563 298.078125 52.25 295.039063 52.167969 C 284.324219 51.5 273.390625 51.816406 262.949219 49.0625 C 256.257813 46.976563 249.152344 46.738281 242.226563 45.785156 C 237.699219 45.25 233.253906 43.847656 228.640625 44.246094 C 224.570313 44.523438 220.972656 46.5 217.296875 47.992188 M 264.398438 30.878906 C 268.492188 33.085938 273.300781 32.074219 277.644531 31.246094 C 273.351563 30.238281 268.65625 29.238281 264.398438 30.878906 M 261.539063 23.328125 C 261.472656 23.605469 261.347656 24.164063 261.285156 24.441406 C 265.09375 24.515625 268.46875 22.617188 271.519531 20.652344 C 267.996094 20.269531 263.875 20.367188 261.539063 23.328125 M 241.160156 10.253906 C 241.1875 11.207031 241.21875 12.160156 241.25 13.113281 C 241.65625 12.929688 242.46875 12.5625 242.871094 12.378906 C 244.429688 12.59375 246.011719 12.636719 247.582031 12.464844 C 247.640625 11.484375 248.675781 9.683594 247.398438 9.175781 C 245.308594 9.46875 243.128906 9.417969 241.160156 10.253906 M 248.113281 5.234375 C 252.230469 5.695313 255.800781 2.371094 259.953125 3.914063 C 260.808594 4.84375 261.589844 6.082031 263.0625 6.085938 C 264.402344 6.476563 266.277344 6.0625 267.058594 7.449219 C 267.171875 7.933594 267.394531 8.890625 267.496094 9.367188 C 266.082031 10.054688 264.617188 10.65625 263.082031 11.046875 C 259.152344 12.109375 255.480469 14.035156 251.390625 14.53125 C 249.386719 14.847656 247.09375 14.679688 245.59375 16.257813 C 253.359375 15.835938 261.152344 15.546875 268.910156 16.320313 C 268.449219 15.628906 267.984375 14.925781 267.652344 14.164063 C 269.886719 11.46875 273.714844 10.796875 276.730469 9.140625 C 282.796875 6.644531 289.632813 4.589844 296.257813 6.007813 C 297.519531 10.148438 302.640625 9.589844 306.136719 10.414063 C 309.320313 11.097656 310.480469 14.148438 312.328125 16.296875 C 315.5 18.890625 319.273438 20.734375 322.613281 23.125 C 328.511719 27.597656 333.878906 32.667969 338.835938 38.074219 C 342.191406 41.863281 345.796875 45.671875 347.550781 50.425781 C 348.292969 52.347656 348.199219 54.609375 349.601563 56.269531 C 351.410156 58.527344 353.449219 60.652344 354.863281 63.183594 C 360.027344 71.71875 361.375 81.851563 360.902344 91.554688 C 360.28125 105 359.292969 118.433594 357.527344 131.792969 C 357.167969 134.855469 356.113281 137.789063 355.175781 140.726563 C 359.203125 142.660156 357.839844 148.628906 357.046875 152.195313 C 356.203125 155.550781 357 159.105469 355.625 162.355469 C 354.328125 160.824219 355.089844 158.875 355.242188 157.128906 C 355.527344 154.796875 356.101563 152.332031 355.246094 150.046875 C 354.480469 148.34375 353.386719 146.804688 352.460938 145.1875 C 351.4375 146.816406 349.40625 148.210938 349.804688 150.332031 C 350.15625 154.078125 349.433594 157.929688 350.675781 161.574219 C 351.503906 164.101563 352.050781 167.113281 350.363281 169.449219 C 349.113281 171.242188 346.964844 173.304688 348.339844 175.609375 C 349.003906 178.425781 352.570313 177.441406 354.65625 176.957031 C 354.585938 180.074219 353.46875 183.128906 349.140625 182.113281 C 347.953125 182.140625 346.554688 181.363281 345.53125 182.226563 C 344.847656 183.46875 344.75 184.902344 344.480469 186.261719 C 343.207031 194.085938 340.351563 201.558594 338.152344 209.167969 C 334.851563 221.851563 332.941406 234.839844 331.976563 247.863281 C 331.4375 252.5 330.15625 257.050781 328.394531 261.402344 C 322.273438 277.34375 308.890625 289.4375 295.023438 299.523438 C 295.070313 299.988281 295.167969 300.921875 295.214844 301.394531 C 297.820313 301.078125 300.691406 300.199219 303.101563 301.652344 C 307.015625 303.855469 310.179688 307.070313 313.097656 310.34375 C 319.492188 317.285156 323.792969 325.648438 327.902344 333.925781 C 329.914063 337.5625 332.148438 341.273438 332.265625 345.507813 C 329.054688 344.800781 327.375 341.984375 326.28125 339.289063 C 323.003906 332.183594 315.878906 326.457031 307.5625 325.890625 C 304.808594 328.328125 305.269531 332.183594 304.378906 335.371094 C 304.078125 337.085938 302.703125 338.320313 301.5 339.519531 C 303.34375 347.945313 308.5 355.207031 311.625 363.1875 C 312.882813 366.21875 313.386719 369.457031 314.265625 372.597656 L 104.179688 372.597656 L 104.179688 303.238281 C 109.277344 301.621094 114.464844 300.179688 119.300781 297.914063 C 133.050781 291.71875 146.941406 285.824219 160.546875 279.34375 C 164.726563 277.378906 168.152344 274.234375 170.980469 270.757813 C 176.503906 263.945313 181.222656 256.554688 185.074219 248.78125 C 186.980469 244.949219 189.757813 240.792969 194.367188 239.710938 C 195.707031 237.078125 194.496094 234.21875 194.273438 231.488281 C 193.597656 227.539063 193.929688 223.511719 193.246094 219.566406 C 192.984375 217.550781 192.453125 215.570313 192.300781 213.542969 C 192.023438 211.988281 193.53125 210.988281 194.449219 209.933594 C 194.152344 206.761719 191.371094 204.523438 190.550781 201.503906 C 189.253906 196.632813 189.1875 191.375 186.472656 186.917969 C 184.03125 187.851563 181.929688 190.027344 179.101563 189.648438 C 175.777344 189.3125 172.601563 187.042969 171.46875 184.03125 C 173.390625 183.710938 175.097656 184.523438 176.632813 185.527344 C 177.953125 186.523438 179.648438 186.113281 181.144531 185.859375 C 182.179688 183.449219 183.847656 180.964844 183.367188 178.257813 C 182.902344 175.613281 179.460938 174.71875 179.035156 172.054688 C 178.917969 169.417969 181.179688 167.246094 180.859375 164.574219 C 180.675781 161.828125 179.914063 159.148438 179.738281 156.394531 C 177.863281 159.019531 178.070313 162.175781 177.804688 165.183594 C 177.816406 167.863281 173.871094 168.304688 172.269531 166.632813 C 171.957031 164.90625 173.460938 163.511719 173.5 161.847656 C 172.308594 159.703125 170.191406 158.164063 168.875 156.078125 C 166.914063 152.136719 167.449219 147.714844 167.761719 143.511719 C 168.128906 139.492188 166.519531 135.679688 165.308594 131.910156 C 163.535156 125.699219 161.777344 119.484375 160.183594 113.234375 C 157.855469 103.496094 158.167969 93.398438 159.40625 83.542969 C 161.523438 71.414063 166.601563 59.773438 174.144531 49.78125 C 181.046875 40.414063 189.183594 31.851563 198.285156 24.378906 C 199.832031 23.140625 201.746094 21.050781 203.980469 22.15625 C 204.042969 22.394531 204.179688 22.851563 204.246094 23.085938 C 208.328125 18.628906 213.820313 15.1875 219.882813 13.765625 C 222.78125 13.144531 224.121094 9.949219 227.15625 9.617188 C 234.183594 8.335938 240.847656 5.234375 248.113281 5.234375 "/>
<path style="fill:none;stroke-width:2.16;stroke-linecap:butt;stroke-linejoin:miter;stroke:rgb(11.799622%,7.499695%,5.899048%);stroke-opacity:1;stroke-miterlimit:22.926;" d="M 2805.46875 2079.009375 C 2793.28125 2066.001563 2779.960938 2051.821875 2778.632813 2033.501563 C 2776.484375 2007.798438 2777.734375 1980.49375 2762.96875 1957.68125 C 2783.007813 1959.204688 2810.234375 1954.517188 2820.507813 1976.001563 C 2830.9375 2010.454688 2819.140625 2046.939063 2805.46875 2079.009375 Z M 1971.914063 2955.884375 C 1979.21875 2930.142188 1996.367188 2908.384375 2007.8125 2884.321875 C 2031.835938 2835.532813 2065.664063 2792.2125 2093.867188 2745.728125 C 2193.671875 2590.845313 2295.78125 2437.36875 2396.5625 2283.032813 C 2443.632813 2214.478125 2655.429688 1865.18125 2672.734375 1851.079688 C 2679.960938 1948.93125 2697.8125 2045.767188 2721.484375 2141.196875 C 2726.484375 2163.189063 2733.828125 2191.001563 2713.398438 2208.071875 C 2685.507813 2233.4625 2643.710938 2231.11875 2607.890625 2232.642188 C 2593.671875 2231.821875 2578.320313 2244.165625 2587.382813 2257.954688 C 2609.335938 2305.767188 2636.757813 2351.196875 2662.34375 2397.290625 C 2678.945313 2424.439063 2697.773438 2458.657813 2734.179688 2463.032813 C 2774.921875 2464.985938 2817.148438 2454.0875 2850.664063 2431.74375 C 2876.289063 2415.767188 2907.617188 2411.43125 2937.226563 2406.470313 C 2949.921875 2408.579688 2967.851563 2417.915625 2961.835938 2432.8375 C 2949.023438 2451.157813 2931.875 2466.470313 2914.882813 2481.196875 C 2871.132813 2514.946875 2811.992188 2514.634375 2760.625 2531.079688 C 2776.054688 2544.517188 2797.226563 2548.032813 2815 2557.8375 C 2744.21875 2585.18125 2691.640625 2641.821875 2621.09375 2669.517188 C 2609.101563 2674.478125 2599.921875 2683.384375 2589.921875 2691.001563 C 2540.429688 2730.064063 2481.367188 2756.11875 2421.953125 2778.579688 C 2301.015625 2822.36875 2186.25 2883.501563 2087.578125 2963.423438 C 2049.414063 2994.439063 2020.117188 3033.579688 1990.546875 3071.704688 C 1968.4375 3037.603125 1960.46875 2994.7125 1971.914063 2955.884375 Z M 2228.320313 2971.11875 C 2253.945313 2951.626563 2284.609375 2933.892188 2318.515625 2934.595313 C 2320.898438 2937.485938 2325.507813 2943.423438 2327.773438 2946.353125 C 2309.492188 2985.845313 2290.078125 3030.80625 2246.328125 3050.298438 C 2225.898438 3058.61875 2190.9375 3058.61875 2195.195313 3094.360938 C 2189.296875 3063.93125 2197.070313 2987.329688 2228.320313 2971.11875 Z M 2768.671875 3341.978125 C 2769.84375 3335.49375 2771.171875 3329.009375 2772.460938 3322.407813 C 2789.335938 3320.025 2809.570313 3326.275 2806.015625 3346.509375 C 2793.242188 3347.603125 2780.664063 3346.11875 2768.671875 3341.978125 Z M 2172.96875 5096.978125 C 2107.148438 5070.80625 2042.96875 5038.696875 1989.0625 4993.735938 C 1969.0625 4975.220313 1948.28125 4956.353125 1935.9375 4932.134375 C 1916.953125 4898.579688 1911.875 4859.829688 1911.054688 4822.251563 C 1908.515625 4799.048438 1933.046875 4785.845313 1940.742188 4766.001563 C 1961.757813 4697.407813 1965.742188 4625.728125 1974.726563 4555.18125 C 1968.984375 4539.24375 1956.367188 4527.095313 1947.890625 4512.720313 C 1946.992188 4499.009375 1957.929688 4488.15 1963.710938 4476.392188 C 1964.179688 4498.189063 1965.429688 4523.579688 1985.9375 4537.485938 C 2022.148438 4564.790625 2034.570313 4609.595313 2057.65625 4645.259375 C 2083.242188 4675.728125 2127.265625 4669.4 2163.085938 4664.907813 C 2190.9375 4662.798438 2212.1875 4640.80625 2240.625 4641.001563 C 2296.015625 4641.235938 2347.070313 4670.571875 2403.007813 4665.376563 C 2475.15625 4661.11875 2537.148438 4621.353125 2596.367188 4585.728125 C 2618.164063 4562.446875 2633.867188 4532.2125 2635.195313 4500.610938 C 2636.132813 4475.845313 2634.921875 4451.079688 2634.0625 4426.314063 C 2633.984375 4394.478125 2603.789063 4367.876563 2571.757813 4363.892188 C 2557.539063 4363.189063 2549.648438 4375.610938 2538.710938 4381.665625 C 2513.90625 4396.392188 2487.539063 4374.282813 2461.171875 4378.15 C 2426.171875 4379.009375 2402.851563 4407.99375 2383.320313 4432.017188 C 2371.289063 4409.907813 2357.734375 4386.939063 2334.804688 4373.423438 C 2306.601563 4355.728125 2272.226563 4352.251563 2239.453125 4349.048438 C 2261.132813 4344.4 2283.164063 4340.18125 2305.507813 4340.454688 C 2329.804688 4339.751563 2353.125 4347.876563 2377.34375 4348.540625 C 2379.375 4344.55625 2383.398438 4336.548438 2385.429688 4332.525 C 2379.609375 4326.040625 2375.195313 4317.564063 2366.523438 4314.0875 C 2293.867188 4288.657813 2219.335938 4265.80625 2142.03125 4257.603125 C 2124.179688 4253.853125 2111.289063 4267.095313 2103.75 4280.532813 C 2077.304688 4287.446875 2048.046875 4287.017188 2024.6875 4302.329688 C 1991.640625 4319.829688 1966.015625 4347.8375 1948.59375 4379.4 C 1940.78125 4396.9 1929.023438 4419.126563 1945.546875 4435.728125 C 1935 4437.68125 1924.179688 4438.4625 1913.59375 4439.946875 C 1913.203125 4410.103125 1883.046875 4392.99375 1876.835938 4365.220313 C 1867.773438 4332.525 1877.1875 4298.735938 1872.109375 4265.689063 C 1870.585938 4255.220313 1869.882813 4244.517188 1872.617188 4234.048438 C 1892.734375 4230.142188 1908.945313 4218.423438 1917.34375 4200.49375 C 1932.070313 4183.775 1928.242188 4161.74375 1929.414063 4141.626563 C 1943.789063 4118.696875 1962.304688 4097.8375 1971.210938 4072.134375 C 1992.382813 4010.18125 1989.765625 3943.93125 1996.875 3879.86875 C 2003.59375 3845.142188 2026.132813 3816.040625 2038.085938 3783.110938 C 2044.101563 3769.126563 2047.539063 3751.939063 2063.28125 3744.55625 C 2135.9375 3703.775 2228.28125 3678.501563 2269.296875 3601.978125 L 2293.90625 3561.392188 C 2306.757813 3551.392188 2324.53125 3549.595313 2339.375 3542.915625 C 2354.726563 3493.384375 2356.445313 3432.876563 2403.007813 3398.61875 C 2442.539063 3375.025 2488.632813 3364.126563 2533.007813 3351.9 C 2552.382813 3348.110938 2562.578125 3367.798438 2579.179688 3371.704688 C 2624.296875 3369.360938 2670.742188 3357.329688 2715.351563 3369.907813 C 2745.117188 3377.759375 2761.015625 3411.392188 2793.945313 3411.079688 C 2819.21875 3409.595313 2835.898438 3389.946875 2855.507813 3377.329688 C 2878.867188 3361.626563 2908.59375 3360.103125 2936.171875 3357.954688 C 2979.023438 3355.49375 3024.765625 3351.626563 3064.414063 3370.454688 C 3094.179688 3382.05625 3108.90625 3411.11875 3127.539063 3433.970313 C 3145.507813 3450.18125 3173.515625 3458.93125 3180.039063 3484.165625 C 3189.609375 3508.501563 3170.898438 3531.9 3174.53125 3556.509375 C 3196.445313 3558.970313 3222.460938 3551.11875 3239.492188 3568.423438 C 3275.351563 3599.0875 3264.960938 3652.173438 3293.007813 3687.407813 C 3309.023438 3703.814063 3333.398438 3706.470313 3355.664063 3706.939063 C 3369.84375 3739.478125 3381.054688 3773.071875 3390.195313 3807.251563 C 3400.15625 3847.329688 3425.234375 3883.15 3427.304688 3925.142188 C 3430.234375 3984.673438 3427.695313 4044.439063 3431.484375 4103.970313 C 3433.4375 4143.696875 3461.835938 4176.548438 3465.351563 4215.9625 C 3471.132813 4245.259375 3460.664063 4273.970313 3454.84375 4302.446875 C 3440.195313 4362.99375 3430.117188 4425.376563 3402.96875 4482.407813 C 3413.554688 4443.970313 3399.765625 4403.267188 3378.984375 4370.18125 C 3356.523438 4340.49375 3315.351563 4340.142188 3282.851563 4327.095313 C 3263.710938 4320.65 3249.726563 4306.196875 3236.171875 4292.603125 C 3168.242188 4312.525 3097.03125 4319.048438 3028.59375 4336.626563 C 3012.773438 4339.946875 3000.390625 4350.80625 2992.851563 4364.048438 C 2994.726563 4367.876563 2998.515625 4375.610938 3000.390625 4379.439063 C 3013.75 4384.829688 3028.085938 4385.689063 3041.953125 4381.509375 C 3084.804688 4375.610938 3133.320313 4362.485938 3172.460938 4387.134375 C 3140.273438 4400.18125 3106.445313 4382.876563 3073.476563 4387.564063 C 3049.453125 4394.478125 3027.304688 4408.032813 3001.5625 4409.165625 C 2968.085938 4412.642188 2937.421875 4395.9625 2904.414063 4394.360938 C 2884.296875 4393.30625 2864.765625 4388.657813 2845.46875 4383.228125 C 2828.085938 4383.775 2819.335938 4401.314063 2812.96875 4414.282813 C 2794.726563 4463.267188 2787.421875 4515.845313 2791.015625 4567.642188 C 2792.539063 4582.290625 2795.078125 4598.775 2806.71875 4609.478125 C 2842.421875 4626.001563 2878.28125 4642.720313 2916.40625 4653.423438 C 2948.945313 4662.99375 2982.695313 4649.86875 3015.78125 4655.064063 C 3093.125 4665.376563 3172.148438 4681.43125 3250.039063 4666.43125 C 3279.335938 4662.525 3306.289063 4650.571875 3333.789063 4640.923438 C 3341.601563 4642.603125 3349.335938 4644.282813 3357.226563 4645.884375 C 3334.179688 4691.314063 3367.539063 4739.009375 3357.5 4786.040625 C 3336.171875 4876.43125 3260.117188 4945.767188 3175.390625 4986.001563 C 3129.6875 5005.532813 3077.695313 5004.86875 3031.71875 5023.501563 C 3006.25 5037.134375 2980.78125 5054.4 2950.390625 5055.220313 C 2843.242188 5061.9 2733.90625 5058.735938 2629.492188 5086.275 C 2562.578125 5107.134375 2491.523438 5109.517188 2422.265625 5119.048438 C 2376.992188 5124.4 2332.539063 5138.423438 2286.40625 5134.439063 C 2245.703125 5131.665625 2209.726563 5111.9 2172.96875 5096.978125 Z M 2643.984375 5268.110938 C 2684.921875 5246.040625 2733.007813 5256.157813 2776.445313 5264.439063 C 2733.515625 5274.517188 2686.5625 5284.517188 2643.984375 5268.110938 Z M 2615.390625 5343.61875 C 2614.726563 5340.845313 2613.476563 5335.259375 2612.851563 5332.485938 C 2650.9375 5331.74375 2684.6875 5350.728125 2715.195313 5370.376563 C 2679.960938 5374.204688 2638.75 5373.228125 2615.390625 5343.61875 Z M 2411.601563 5474.360938 C 2411.875 5464.829688 2412.1875 5455.298438 2412.5 5445.767188 C 2416.5625 5447.603125 2424.6875 5451.275 2428.710938 5453.110938 C 2444.296875 5450.9625 2460.117188 5450.532813 2475.820313 5452.251563 C 2476.40625 5462.05625 2486.757813 5480.064063 2473.984375 5485.142188 C 2453.085938 5482.2125 2431.289063 5482.720313 2411.601563 5474.360938 Z M 2481.132813 5524.55625 C 2522.304688 5519.946875 2558.007813 5553.189063 2599.53125 5537.759375 C 2608.085938 5528.4625 2615.898438 5516.079688 2630.625 5516.040625 C 2644.023438 5512.134375 2662.773438 5516.275 2670.585938 5502.407813 C 2671.71875 5497.564063 2673.945313 5487.99375 2674.960938 5483.228125 C 2660.820313 5476.353125 2646.171875 5470.3375 2630.820313 5466.43125 C 2591.523438 5455.80625 2554.804688 5436.548438 2513.90625 5431.5875 C 2493.867188 5428.423438 2470.9375 5430.103125 2455.9375 5414.321875 C 2533.59375 5418.540625 2611.523438 5421.43125 2689.101563 5413.696875 C 2684.492188 5420.610938 2679.84375 5427.642188 2676.523438 5435.259375 C 2698.867188 5462.2125 2737.148438 5468.93125 2767.304688 5485.49375 C 2827.96875 5510.454688 2896.328125 5531.001563 2962.578125 5516.821875 C 2975.195313 5475.415625 3026.40625 5481.001563 3061.367188 5472.759375 C 3093.203125 5465.923438 3104.804688 5435.415625 3123.28125 5413.93125 C 3155 5387.99375 3192.734375 5369.55625 3226.132813 5345.65 C 3285.117188 5300.923438 3338.789063 5250.220313 3388.359375 5196.157813 C 3421.914063 5158.267188 3457.96875 5120.18125 3475.507813 5072.642188 C 3482.929688 5053.423438 3481.992188 5030.80625 3496.015625 5014.204688 C 3514.101563 4991.626563 3534.492188 4970.376563 3548.632813 4945.064063 C 3600.273438 4859.7125 3613.75 4758.384375 3609.023438 4661.353125 C 3602.8125 4526.9 3592.929688 4392.564063 3575.273438 4258.970313 C 3571.679688 4228.345313 3561.132813 4199.009375 3551.757813 4169.634375 C 3592.03125 4150.298438 3578.398438 4090.610938 3570.46875 4054.946875 C 3562.03125 4021.392188 3570 3985.845313 3556.25 3953.345313 C 3543.28125 3968.657813 3550.898438 3988.15 3552.421875 4005.610938 C 3555.273438 4028.93125 3561.015625 4053.579688 3552.460938 4076.43125 C 3544.804688 4093.4625 3533.867188 4108.853125 3524.609375 4125.025 C 3514.375 4108.735938 3494.0625 4094.790625 3498.046875 4073.579688 C 3501.5625 4036.11875 3494.335938 3997.603125 3506.757813 3961.157813 C 3515.039063 3935.884375 3520.507813 3905.767188 3503.632813 3882.407813 C 3491.132813 3864.478125 3469.648438 3843.853125 3483.398438 3820.80625 C 3490.039063 3792.642188 3525.703125 3802.485938 3546.5625 3807.329688 C 3545.859375 3776.157813 3534.6875 3745.610938 3491.40625 3755.767188 C 3479.53125 3755.49375 3465.546875 3763.267188 3455.3125 3754.634375 C 3448.476563 3742.2125 3447.5 3727.876563 3444.804688 3714.282813 C 3432.070313 3636.040625 3403.515625 3561.314063 3381.523438 3485.220313 C 3348.515625 3358.384375 3329.414063 3228.501563 3319.765625 3098.267188 C 3314.375 3051.9 3301.5625 3006.392188 3283.945313 2962.876563 C 3222.734375 2803.4625 3088.90625 2682.525 2950.234375 2581.665625 C 2950.703125 2577.017188 2951.679688 2567.68125 2952.148438 2562.954688 C 2978.203125 2566.11875 3006.914063 2574.907813 3031.015625 2560.376563 C 3070.15625 2538.345313 3101.796875 2506.196875 3130.976563 2473.4625 C 3194.921875 2404.048438 3237.929688 2320.415625 3279.023438 2237.642188 C 3299.140625 2201.275 3321.484375 2164.165625 3322.65625 2121.821875 C 3290.546875 2128.892188 3273.75 2157.05625 3262.8125 2184.009375 C 3230.039063 2255.064063 3158.789063 2312.329688 3075.625 2317.99375 C 3048.085938 2293.61875 3052.695313 2255.064063 3043.789063 2223.189063 C 3040.78125 2206.040625 3027.03125 2193.696875 3015 2181.704688 C 3033.4375 2097.446875 3085 2024.829688 3116.25 1945.025 C 3128.828125 1914.7125 3133.867188 1882.329688 3142.65625 1850.923438 L 1041.796875 1850.923438 L 1041.796875 2544.517188 C 1092.773438 2560.689063 1144.648438 2575.103125 1193.007813 2597.759375 C 1330.507813 2659.7125 1469.414063 2718.657813 1605.46875 2783.4625 C 1647.265625 2803.110938 1681.523438 2834.55625 1709.804688 2869.321875 C 1765.039063 2937.446875 1812.226563 3011.353125 1850.742188 3089.0875 C 1869.804688 3127.407813 1897.578125 3168.970313 1943.671875 3179.790625 C 1957.070313 3206.11875 1944.960938 3234.7125 1942.734375 3262.017188 C 1935.976563 3301.509375 1939.296875 3341.782813 1932.460938 3381.235938 C 1929.84375 3401.392188 1924.53125 3421.196875 1923.007813 3441.470313 C 1920.234375 3457.017188 1935.3125 3467.017188 1944.492188 3477.564063 C 1941.523438 3509.282813 1913.710938 3531.665625 1905.507813 3561.860938 C 1892.539063 3610.571875 1891.875 3663.15 1864.726563 3707.720313 C 1840.3125 3698.384375 1819.296875 3676.626563 1791.015625 3680.415625 C 1757.773438 3683.775 1726.015625 3706.470313 1714.6875 3736.5875 C 1733.90625 3739.790625 1750.976563 3731.665625 1766.328125 3721.626563 C 1779.53125 3711.665625 1796.484375 3715.767188 1811.445313 3718.30625 C 1821.796875 3742.407813 1838.476563 3767.251563 1833.671875 3794.321875 C 1829.023438 3820.767188 1794.609375 3829.7125 1790.351563 3856.353125 C 1789.179688 3882.720313 1811.796875 3904.439063 1808.59375 3931.157813 C 1806.757813 3958.61875 1799.140625 3985.415625 1797.382813 4012.954688 C 1778.632813 3986.704688 1780.703125 3955.142188 1778.046875 3925.064063 C 1778.164063 3898.267188 1738.710938 3893.853125 1722.695313 3910.571875 C 1719.570313 3927.8375 1734.609375 3941.782813 1735 3958.423438 C 1723.085938 3979.86875 1701.914063 3995.259375 1688.75 4016.11875 C 1669.140625 4055.532813 1674.492188 4099.751563 1677.617188 4141.782813 C 1681.289063 4181.978125 1665.195313 4220.103125 1653.085938 4257.798438 C 1635.351563 4319.907813 1617.773438 4382.05625 1601.835938 4444.55625 C 1578.554688 4541.939063 1581.679688 4642.915625 1594.0625 4741.470313 C 1615.234375 4862.759375 1666.015625 4979.165625 1741.445313 5079.0875 C 1810.46875 5172.759375 1891.835938 5258.384375 1982.851563 5333.110938 C 1998.320313 5345.49375 2017.460938 5366.392188 2039.804688 5355.3375 C 2040.429688 5352.954688 2041.796875 5348.384375 2042.460938 5346.040625 C 2083.28125 5390.610938 2138.203125 5425.025 2198.828125 5439.24375 C 2227.8125 5445.454688 2241.210938 5477.407813 2271.5625 5480.728125 C 2341.835938 5493.540625 2408.476563 5524.55625 2481.132813 5524.55625 Z M 2481.132813 5524.55625 " transform="matrix(0.1,0,0,-0.1,0,557.69)"/>
<path style=" stroke:none;fill-rule:nonzero;fill:rgb(11.799622%,7.499695%,5.899048%);fill-opacity:1;" d="M 258.320313 135.816406 C 259.550781 135.535156 260.820313 135.363281 262.007813 135.910156 C 262.617188 137.605469 262.949219 139.386719 262.605469 141.171875 C 262.234375 141.308594 261.65625 142.429688 261.277344 142.566406 C 260.59375 142.367188 259.753906 141.320313 259.070313 141.128906 C 258.125 139.492188 258.097656 137.625 258.320313 135.816406 "/>
<path style="fill:none;stroke-width:2.16;stroke-linecap:butt;stroke-linejoin:miter;stroke:rgb(11.799622%,7.499695%,5.899048%);stroke-opacity:1;stroke-miterlimit:22.926;" d="M 2583.203125 4218.735938 C 2595.507813 4221.548438 2608.203125 4223.267188 2620.078125 4217.798438 C 2626.171875 4200.845313 2629.492188 4183.032813 2626.054688 4165.18125 C 2622.34375 4163.814063 2616.5625 4152.603125 2612.773438 4151.235938 C 2605.9375 4153.228125 2597.539063 4163.696875 2590.703125 4165.610938 C 2581.25 4181.978125 2580.976563 4200.65 2583.203125 4218.735938 Z M 2583.203125 4218.735938 " transform="matrix(0.1,0,0,-0.1,0,557.69)"/>
<path style=" stroke:none;fill-rule:nonzero;fill:rgb(11.799622%,7.499695%,5.899048%);fill-opacity:1;" d="M 278.816406 149.257813 C 282.398438 148.691406 284.039063 145.175781 287.183594 143.871094 C 289.804688 144.519531 288.890625 147.355469 289.828125 149.164063 C 290.488281 151.242188 293.066406 151.757813 294.25 153.433594 C 295.324219 158.152344 292.550781 163.238281 288.082031 165.417969 C 285.90625 166.59375 283.382813 166.992188 281.226563 168.203125 C 279.289063 169.238281 278.535156 171.714844 276.210938 172.152344 C 274.828125 172.230469 273.285156 172.382813 272.101563 171.558594 C 266.800781 168.261719 259.941406 167.683594 255.285156 163.359375 C 252.484375 161.226563 251.90625 157.167969 253.429688 154.195313 C 254.511719 152.097656 257.382813 152.214844 259.03125 150.753906 C 260.4375 149.082031 260.164063 146.457031 262.117188 145.164063 C 268.324219 143.585938 272.65625 150.734375 278.816406 149.257813 "/>
<path style="fill:none;stroke-width:2.16;stroke-linecap:butt;stroke-linejoin:miter;stroke:rgb(11.799622%,7.499695%,5.899048%);stroke-opacity:1;stroke-miterlimit:22.926;" d="M 2788.164063 4084.321875 C 2823.984375 4089.985938 2840.390625 4125.142188 2871.835938 4138.189063 C 2898.046875 4131.704688 2888.90625 4103.345313 2898.28125 4085.259375 C 2904.882813 4064.478125 2930.664063 4059.321875 2942.5 4042.564063 C 2953.242188 3995.376563 2925.507813 3944.517188 2880.820313 3922.720313 C 2859.0625 3910.9625 2833.828125 3906.978125 2812.265625 3894.86875 C 2792.890625 3884.517188 2785.351563 3859.751563 2762.109375 3855.376563 C 2748.28125 3854.595313 2732.851563 3853.071875 2721.015625 3861.314063 C 2668.007813 3894.282813 2599.414063 3900.064063 2552.851563 3943.30625 C 2524.84375 3964.634375 2519.0625 4005.220313 2534.296875 4034.946875 C 2545.117188 4055.923438 2573.828125 4054.751563 2590.3125 4069.360938 C 2604.375 4086.079688 2601.640625 4112.329688 2621.171875 4125.259375 C 2683.242188 4141.040625 2726.5625 4069.55625 2788.164063 4084.321875 Z M 2788.164063 4084.321875 " transform="matrix(0.1,0,0,-0.1,0,557.69)"/>
<path style=" stroke:none;fill-rule:nonzero;fill:rgb(11.799622%,7.499695%,5.899048%);fill-opacity:1;" d="M 289.097656 179.980469 C 295.070313 179.199219 301.726563 176.730469 307.359375 179.984375 C 309.683594 181.902344 313.175781 181.527344 315.390625 183.605469 C 317.636719 185.558594 318.152344 188.589844 318.699219 191.296875 C 319.050781 193.449219 319.941406 195.726563 318.875 197.832031 C 316.144531 198.5 313.625 197.128906 311.171875 196.203125 C 308.355469 195.164063 306.792969 192.570313 304.625 190.742188 L 304.4375 190.601563 C 299.367188 187.351563 293.078125 186.460938 287.09375 187.054688 C 277.550781 187.964844 267.765625 187.523438 258.503906 190.25 C 255.402344 190.941406 252.640625 192.53125 250.230469 194.476563 C 246.550781 197.480469 242.730469 200.402344 238.371094 202.476563 C 236.378906 203.015625 234.808594 201.183594 233.808594 199.800781 C 231.730469 196.261719 230.84375 192.089844 231.046875 188.058594 C 232.085938 186.695313 234.199219 186.597656 235.558594 185.550781 C 239.21875 183.035156 242.519531 179.117188 247.464844 179.25 C 251.761719 178.746094 255.488281 182.1875 259.800781 181.019531 C 263.394531 179.917969 267.203125 179.253906 270.988281 179.769531 C 273.65625 179.980469 276.078125 181.675781 278.835938 181.160156 C 280.214844 180.957031 281.347656 179.992188 282.730469 179.824219 C 284.851563 180.015625 286.976563 180.488281 289.097656 179.980469 "/>
<path style="fill:none;stroke-width:2.16;stroke-linecap:butt;stroke-linejoin:miter;stroke:rgb(11.799622%,7.499695%,5.899048%);stroke-opacity:1;stroke-miterlimit:22.926;" d="M 2890.976563 3777.095313 C 2950.703125 3784.907813 3017.265625 3809.595313 3073.59375 3777.05625 C 3096.835938 3757.876563 3131.757813 3761.626563 3153.90625 3740.845313 C 3176.367188 3721.314063 3181.523438 3691.001563 3186.992188 3663.93125 C 3190.507813 3642.407813 3199.414063 3619.634375 3188.75 3598.579688 C 3161.445313 3591.9 3136.25 3605.610938 3111.71875 3614.86875 C 3083.554688 3625.259375 3067.929688 3651.196875 3046.25 3669.478125 L 3044.375 3670.884375 C 2993.671875 3703.384375 2930.78125 3712.290625 2870.9375 3706.353125 C 2775.507813 3697.251563 2677.65625 3701.665625 2585.039063 3674.4 C 2554.023438 3667.485938 2526.40625 3651.5875 2502.304688 3632.134375 C 2465.507813 3602.095313 2427.304688 3572.876563 2383.710938 3552.134375 C 2363.789063 3546.74375 2348.085938 3565.064063 2338.085938 3578.892188 C 2317.304688 3614.282813 2308.4375 3656.001563 2310.46875 3696.314063 C 2320.859375 3709.946875 2341.992188 3710.923438 2355.585938 3721.392188 C 2392.1875 3746.548438 2425.195313 3785.728125 2474.648438 3784.4 C 2517.617188 3789.439063 2554.882813 3755.025 2598.007813 3766.704688 C 2633.945313 3777.720313 2672.03125 3784.360938 2709.882813 3779.204688 C 2736.5625 3777.095313 2760.78125 3760.142188 2788.359375 3765.298438 C 2802.148438 3767.329688 2813.476563 3776.978125 2827.304688 3778.657813 C 2848.515625 3776.74375 2869.765625 3772.017188 2890.976563 3777.095313 Z M 2890.976563 3777.095313 " transform="matrix(0.1,0,0,-0.1,0,557.69)"/>
<path style=" stroke:none;fill-rule:nonzero;fill:rgb(11.799622%,7.499695%,5.899048%);fill-opacity:1;" d="M 262.402344 196.847656 C 268.785156 196.773438 274.890625 194.234375 281.308594 194.695313 C 285.503906 195.027344 289.621094 195.9375 293.710938 196.847656 C 294.753906 196.910156 295.339844 197.734375 295.925781 198.4375 C 295.730469 199.789063 296.015625 201.304688 295.203125 202.511719 C 294.65625 203.488281 293.363281 203.355469 292.386719 203.421875 C 289.074219 203.355469 285.804688 202.808594 282.507813 202.511719 C 275.058594 201.21875 267.574219 204.921875 260.183594 202.777344 C 258.507813 202.160156 256.328125 202.011719 255.246094 200.492188 C 254.882813 199.132813 255.265625 196.945313 257.117188 196.828125 C 258.875 196.675781 260.640625 196.945313 262.402344 196.847656 "/>
<path style="fill:none;stroke-width:2.16;stroke-linecap:butt;stroke-linejoin:miter;stroke:rgb(11.799622%,7.499695%,5.899048%);stroke-opacity:1;stroke-miterlimit:22.926;" d="M 2624.023438 3608.423438 C 2687.851563 3609.165625 2748.90625 3634.55625 2813.085938 3629.946875 C 2855.039063 3626.626563 2896.210938 3617.525 2937.109375 3608.423438 C 2947.539063 3607.798438 2953.398438 3599.55625 2959.257813 3592.525 C 2957.304688 3579.009375 2960.15625 3563.853125 2952.03125 3551.782813 C 2946.5625 3542.017188 2933.632813 3543.345313 2923.867188 3542.68125 C 2890.742188 3543.345313 2858.046875 3548.814063 2825.078125 3551.782813 C 2750.585938 3564.7125 2675.742188 3527.68125 2601.835938 3549.126563 C 2585.078125 3555.298438 2563.28125 3556.782813 2552.460938 3571.978125 C 2548.828125 3585.571875 2552.65625 3607.446875 2571.171875 3608.61875 C 2588.75 3610.142188 2606.40625 3607.446875 2624.023438 3608.423438 Z M 2624.023438 3608.423438 " transform="matrix(0.1,0,0,-0.1,0,557.69)"/>
<path style=" stroke:none;fill-rule:nonzero;fill:rgb(11.799622%,7.499695%,5.899048%);fill-opacity:1;" d="M 332.480469 267.40625 C 333.691406 268.8125 334.980469 270.160156 336.035156 271.691406 C 338.835938 275.660156 342.738281 279.300781 347.734375 280.535156 C 356.101563 282.710938 364.210938 285.675781 372.316406 288.585938 C 379.78125 291.46875 387.53125 293.636719 394.898438 296.742188 C 406.679688 301.324219 418.035156 306.828125 429.8125 311.414063 L 429.8125 372.597656 L 344.390625 372.597656 C 343.792969 360.152344 342.164063 347.785156 340.894531 335.398438 C 340.035156 326.289063 339.332031 317.171875 338.0625 308.109375 C 337.097656 301.097656 335.429688 294.195313 334.226563 287.222656 C 333.085938 280.667969 332.921875 274.019531 332.480469 267.40625 "/>
<path style="fill:none;stroke-width:2.16;stroke-linecap:butt;stroke-linejoin:miter;stroke:rgb(11.799622%,7.499695%,5.899048%);stroke-opacity:1;stroke-miterlimit:22.926;" d="M 3324.804688 2902.8375 C 3336.914063 2888.775 3349.804688 2875.298438 3360.351563 2859.985938 C 3388.359375 2820.298438 3427.382813 2783.892188 3477.34375 2771.548438 C 3561.015625 2749.790625 3642.109375 2720.142188 3723.164063 2691.040625 C 3797.8125 2662.2125 3875.3125 2640.532813 3948.984375 2609.478125 C 4066.796875 2563.657813 4180.351563 2508.61875 4298.125 2462.759375 L 4298.125 1850.923438 L 3443.90625 1850.923438 C 3437.929688 1975.376563 3421.640625 2099.048438 3408.945313 2222.915625 C 3400.351563 2314.009375 3393.320313 2405.18125 3380.625 2495.80625 C 3370.976563 2565.923438 3354.296875 2634.946875 3342.265625 2704.673438 C 3330.859375 2770.220313 3329.21875 2836.704688 3324.804688 2902.8375 Z M 3324.804688 2902.8375 " transform="matrix(0.1,0,0,-0.1,0,557.69)"/>
<path style=" stroke:none;fill-rule:nonzero;fill:rgb(11.799622%,7.499695%,5.899048%);fill-opacity:1;" d="M 405.148438 447.863281 L 429.375 447.863281 L 429.375 458.472656 L 419.699219 458.472656 L 419.699219 468.605469 L 428.738281 468.605469 L 428.738281 478.675781 L 419.699219 478.675781 L 419.699219 490.355469 L 430.363281 490.355469 L 430.363281 500.964844 L 405.148438 500.964844 Z M 401.65625 447.863281 L 401.65625 458.472656 L 393.109375 458.472656 L 393.109375 500.964844 L 378.5625 500.964844 L 378.5625 458.472656 L 369.949219 458.472656 L 369.949219 447.863281 Z M 366.421875 447.863281 L 366.421875 500.964844 L 353.707031 500.964844 L 346.148438 476.820313 L 346.148438 500.964844 L 334.003906 500.964844 L 334.003906 447.863281 L 346.148438 447.863281 L 354.273438 471.773438 L 354.273438 447.863281 Z M 304.484375 447.863281 L 328.710938 447.863281 L 328.710938 458.472656 L 319.035156 458.472656 L 319.035156 468.605469 L 328.074219 468.605469 L 328.074219 478.675781 L 319.035156 478.675781 L 319.035156 490.355469 L 329.699219 490.355469 L 329.699219 500.964844 L 304.484375 500.964844 Z M 279.828125 456.925781 L 279.828125 491.902344 C 281.890625 491.902344 283.160156 491.496094 283.632813 490.703125 C 284.113281 489.898438 284.351563 487.726563 284.351563 484.179688 L 284.351563 463.527344 C 284.351563 461.121094 284.265625 459.578125 284.113281 458.894531 C 283.949219 458.214844 283.59375 457.722656 283.019531 457.40625 C 282.453125 457.082031 281.394531 456.925781 279.828125 456.925781 M 265.28125 447.863281 L 276.144531 447.863281 C 283.148438 447.863281 287.894531 448.164063 290.363281 448.78125 C 292.835938 449.398438 294.71875 450.402344 296.003906 451.800781 C 297.285156 453.199219 298.097656 454.757813 298.414063 456.46875 C 298.730469 458.191406 298.898438 461.558594 298.898438 466.59375 L 298.898438 485.1875 C 298.898438 489.953125 298.660156 493.144531 298.191406 494.742188 C 297.71875 496.355469 296.894531 497.617188 295.730469 498.523438 C 294.554688 499.429688 293.105469 500.058594 291.378906 500.425781 C 289.65625 500.785156 287.058594 500.964844 283.585938 500.964844 L 265.28125 500.964844 Z M 259.304688 500.964844 L 244.757813 500.964844 L 244.757813 447.863281 L 259.304688 447.863281 Z M 238.78125 463.976563 L 225.289063 463.976563 L 225.289063 460.046875 C 225.289063 458.214844 225.113281 457.039063 224.773438 456.535156 C 224.429688 456.03125 223.867188 455.785156 223.066406 455.785156 C 222.195313 455.785156 221.535156 456.121094 221.089844 456.804688 C 220.640625 457.476563 220.417969 458.492188 220.417969 459.867188 C 220.417969 461.636719 220.675781 462.96875 221.183594 463.863281 C 221.675781 464.746094 223.042969 465.832031 225.289063 467.109375 C 231.730469 470.765625 235.789063 473.777344 237.460938 476.113281 C 239.144531 478.453125 239.980469 482.222656 239.980469 487.414063 C 239.980469 491.195313 239.507813 493.980469 238.578125 495.785156 C 237.648438 497.574219 235.859375 499.074219 233.1875 500.28125 C 230.527344 501.5 227.433594 502.105469 223.890625 502.105469 C 220.003906 502.105469 216.699219 501.398438 213.941406 500 C 211.199219 498.601563 209.410156 496.824219 208.550781 494.664063 C 207.703125 492.492188 207.28125 489.417969 207.28125 485.445313 L 207.28125 481.964844 L 220.769531 481.964844 L 220.769531 488.421875 C 220.769531 490.414063 220.960938 491.6875 221.335938 492.257813 C 221.714844 492.828125 222.382813 493.109375 223.347656 493.109375 C 224.3125 493.109375 225.03125 492.75 225.503906 492.023438 C 225.972656 491.308594 226.210938 490.234375 226.210938 488.824219 C 226.210938 485.703125 225.761719 483.65625 224.867188 482.703125 C 223.9375 481.742188 221.675781 480.132813 218.074219 477.871094 C 214.472656 475.601563 212.09375 473.945313 210.917969 472.914063 C 209.753906 471.886719 208.777344 470.464844 208.011719 468.652344 C 207.246094 466.839844 206.855469 464.523438 206.855469 461.703125 C 206.855469 457.644531 207.398438 454.667969 208.492188 452.785156 C 209.589844 450.90625 211.34375 449.441406 213.777344 448.378906 C 216.214844 447.316406 219.144531 446.789063 222.59375 446.789063 C 226.359375 446.789063 229.5625 447.371094 232.222656 448.523438 C 234.871094 449.6875 236.625 451.140625 237.484375 452.910156 C 238.34375 454.667969 238.78125 457.652344 238.78125 461.871094 Z M 178.539063 447.863281 L 202.765625 447.863281 L 202.765625 458.472656 L 193.089844 458.472656 L 193.089844 468.605469 L 202.128906 468.605469 L 202.128906 478.675781 L 193.089844 478.675781 L 193.089844 490.355469 L 203.753906 490.355469 L 203.753906 500.964844 L 178.539063 500.964844 Z M 154.882813 456.925781 L 154.882813 468.742188 C 156.507813 468.742188 157.640625 468.527344 158.285156 468.105469 C 158.933594 467.679688 159.265625 466.289063 159.265625 463.953125 L 159.265625 461.03125 C 159.265625 459.34375 158.945313 458.234375 158.320313 457.710938 C 157.699219 457.183594 156.546875 456.925781 154.882813 456.925781 M 140.335938 447.863281 L 150.613281 447.863281 C 157.464844 447.863281 162.101563 448.109375 164.523438 448.613281 C 166.949219 449.117188 168.925781 450.402344 170.457031 452.472656 C 171.988281 454.53125 172.753906 457.832031 172.753906 462.351563 C 172.753906 466.480469 172.210938 469.257813 171.128906 470.675781 C 170.058594 472.097656 167.925781 472.949219 164.746094 473.226563 C 167.621094 473.910156 169.5625 474.816406 170.550781 475.957031 C 171.539063 477.089844 172.152344 478.140625 172.386719 479.089844 C 172.632813 480.042969 172.753906 482.660156 172.753906 486.945313 L 172.753906 500.964844 L 159.265625 500.964844 L 159.265625 483.296875 C 159.265625 480.453125 159.027344 478.699219 158.558594 478.015625 C 158.097656 477.332031 156.875 476.996094 154.882813 476.996094 L 154.882813 500.964844 L 140.335938 500.964844 Z M 119.257813 456.925781 L 119.257813 470.453125 C 119.671875 470.476563 120.023438 470.488281 120.316406 470.488281 C 121.648438 470.488281 122.566406 470.171875 123.085938 469.546875 C 123.589844 468.933594 123.847656 467.632813 123.847656 465.664063 L 123.847656 461.289063 C 123.847656 459.476563 123.554688 458.289063 122.953125 457.742188 C 122.367188 457.195313 121.128906 456.925781 119.257813 456.925781 M 104.710938 447.863281 L 119.339844 447.863281 C 123.296875 447.863281 126.332031 448.15625 128.464844 448.746094 C 130.582031 449.339844 132.183594 450.191406 133.253906 451.300781 C 134.324219 452.417969 135.042969 453.769531 135.429688 455.347656 C 135.808594 456.9375 135.996094 459.386719 135.996094 462.710938 L 135.996094 467.332031 C 135.996094 470.710938 135.632813 473.183594 134.890625 474.726563 C 134.160156 476.28125 132.808594 477.480469 130.851563 478.308594 C 128.886719 479.136719 126.320313 479.550781 123.15625 479.550781 L 119.257813 479.550781 L 119.257813 500.964844 L 104.710938 500.964844 Z M 414.484375 399.3125 C 414.484375 396.851563 414.34375 395.273438 414.0625 394.582031 C 413.777344 393.898438 413.203125 393.550781 412.328125 393.550781 C 411.589844 393.550781 411.023438 393.832031 410.625 394.390625 C 410.234375 394.9375 410.035156 396.582031 410.035156 399.3125 L 410.035156 424.09375 C 410.035156 427.171875 410.164063 429.074219 410.425781 429.789063 C 410.683594 430.515625 411.285156 430.875 412.226563 430.875 C 413.191406 430.875 413.8125 430.460938 414.085938 429.632813 C 414.355469 428.804688 414.484375 426.824219 414.484375 423.703125 Z M 429.035156 416.757813 C 429.035156 422.09375 428.902344 425.863281 428.632813 428.078125 C 428.375 430.304688 427.550781 432.328125 426.160156 434.164063 C 424.773438 436 422.890625 437.410156 420.523438 438.394531 C 418.15625 439.378906 415.402344 439.871094 412.261719 439.871094 C 409.269531 439.871094 406.597656 439.402344 404.21875 438.472656 C 401.84375 437.542969 399.925781 436.15625 398.488281 434.300781 C 397.039063 432.441406 396.183594 430.417969 395.898438 428.234375 C 395.628906 426.042969 395.488281 422.214844 395.488281 416.757813 L 395.488281 407.671875 C 395.488281 402.335938 395.617188 398.5625 395.886719 396.347656 C 396.144531 394.121094 396.96875 392.097656 398.359375 390.261719 C 399.746094 388.425781 401.632813 387.015625 403.996094 386.03125 C 406.363281 385.046875 409.117188 384.554688 412.261719 384.554688 C 415.25 384.554688 417.921875 385.027344 420.300781 385.953125 C 422.675781 386.882813 424.59375 388.269531 426.03125 390.128906 C 427.480469 391.984375 428.339844 394.011719 428.621094 396.191406 C 428.890625 398.386719 429.035156 402.210938 429.035156 407.671875 Z M 372.429688 394.691406 L 372.429688 406.507813 C 374.054688 406.507813 375.183594 406.296875 375.828125 405.871094 C 376.480469 405.445313 376.808594 404.058594 376.808594 401.71875 L 376.808594 398.800781 C 376.808594 397.109375 376.488281 396.003906 375.867188 395.476563 C 375.242188 394.949219 374.089844 394.691406 372.429688 394.691406 M 357.878906 385.628906 L 368.15625 385.628906 C 375.007813 385.628906 379.644531 385.875 382.070313 386.378906 C 384.492188 386.882813 386.472656 388.171875 388.003906 390.238281 C 389.53125 392.296875 390.296875 395.597656 390.296875 400.117188 C 390.296875 404.246094 389.753906 407.023438 388.671875 408.441406 C 387.601563 409.863281 385.46875 410.714844 382.292969 410.992188 C 385.164063 411.675781 387.105469 412.582031 388.09375 413.722656 C 389.085938 414.855469 389.695313 415.90625 389.933594 416.855469 C 390.179688 417.808594 390.296875 420.425781 390.296875 424.710938 L 390.296875 438.730469 L 376.808594 438.730469 L 376.808594 421.0625 C 376.808594 418.222656 376.574219 416.464844 376.101563 415.78125 C 375.644531 415.101563 374.417969 414.765625 372.429688 414.765625 L 372.429688 438.730469 L 357.878906 438.730469 Z M 339.367188 419.800781 C 338.671875 413.78125 337.941406 406.328125 337.164063 397.433594 C 335.730469 407.636719 334.824219 415.089844 334.433594 419.800781 Z M 347.074219 385.628906 L 355.386719 438.730469 L 340.542969 438.730469 L 339.753906 429.195313 L 334.515625 429.195313 L 333.726563 438.730469 L 318.695313 438.730469 L 326.066406 385.628906 Z M 316.1875 385.628906 L 316.1875 438.730469 L 303.476563 438.730469 L 295.921875 414.585938 L 295.921875 438.730469 L 283.773438 438.730469 L 283.773438 385.628906 L 295.921875 385.628906 L 304.042969 409.539063 L 304.042969 385.628906 Z M 263.765625 399.3125 C 263.765625 396.851563 263.621094 395.273438 263.339844 394.582031 C 263.058594 393.898438 262.480469 393.550781 261.609375 393.550781 C 260.867188 393.550781 260.304688 393.832031 259.902344 394.390625 C 259.515625 394.9375 259.3125 396.582031 259.3125 399.3125 L 259.3125 424.09375 C 259.3125 427.171875 259.445313 429.074219 259.703125 429.789063 C 259.964844 430.515625 260.5625 430.875 261.503906 430.875 C 262.46875 430.875 263.09375 430.460938 263.363281 429.632813 C 263.632813 428.804688 263.765625 426.824219 263.765625 423.703125 Z M 278.3125 416.757813 C 278.3125 422.09375 278.183594 425.863281 277.914063 428.078125 C 277.652344 430.304688 276.828125 432.328125 275.441406 434.164063 C 274.050781 436 272.167969 437.410156 269.800781 438.394531 C 267.4375 439.378906 264.683594 439.871094 261.539063 439.871094 C 258.550781 439.871094 255.878906 439.402344 253.5 438.472656 C 251.121094 437.542969 249.203125 436.15625 247.769531 434.300781 C 246.320313 432.441406 245.460938 430.417969 245.179688 428.234375 C 244.90625 426.042969 244.765625 422.214844 244.765625 416.757813 L 244.765625 407.671875 C 244.765625 402.335938 244.894531 398.5625 245.164063 396.347656 C 245.425781 394.121094 246.25 392.097656 247.640625 390.261719 C 249.027344 388.425781 250.910156 387.015625 253.277344 386.03125 C 255.644531 385.046875 258.394531 384.554688 261.539063 384.554688 C 264.53125 384.554688 267.199219 385.027344 269.578125 385.953125 C 271.957031 386.882813 273.875 388.269531 275.3125 390.128906 C 276.757813 391.984375 277.617188 394.011719 277.898438 396.191406 C 278.171875 398.386719 278.3125 402.210938 278.3125 407.671875 Z M 239.386719 401.742188 L 225.898438 401.742188 L 225.898438 397.8125 C 225.898438 395.980469 225.722656 394.804688 225.378906 394.300781 C 225.039063 393.796875 224.476563 393.550781 223.671875 393.550781 C 222.800781 393.550781 222.144531 393.886719 221.695313 394.570313 C 221.25 395.242188 221.023438 396.257813 221.023438 397.636719 C 221.023438 399.402344 221.285156 400.734375 221.789063 401.628906 C 222.285156 402.511719 223.648438 403.597656 225.898438 404.875 C 232.335938 408.53125 236.398438 411.542969 238.070313 413.878906 C 239.753906 416.21875 240.589844 419.988281 240.589844 425.179688 C 240.589844 428.960938 240.117188 431.746094 239.1875 433.550781 C 238.257813 435.339844 236.46875 436.839844 233.796875 438.046875 C 231.136719 439.265625 228.039063 439.871094 224.496094 439.871094 C 220.613281 439.871094 217.304688 439.164063 214.550781 437.765625 C 211.808594 436.367188 210.019531 434.589844 209.160156 432.429688 C 208.3125 430.261719 207.890625 427.183594 207.890625 423.210938 L 207.890625 419.730469 L 221.378906 419.730469 L 221.378906 426.1875 C 221.378906 428.179688 221.566406 429.453125 221.941406 430.023438 C 222.320313 430.597656 222.992188 430.875 223.957031 430.875 C 224.921875 430.875 225.640625 430.515625 226.109375 429.789063 C 226.582031 429.074219 226.816406 428 226.816406 426.589844 C 226.816406 423.46875 226.371094 421.421875 225.476563 420.46875 C 224.546875 419.507813 222.285156 417.898438 218.683594 415.636719 C 215.082031 413.367188 212.703125 411.710938 211.527344 410.679688 C 210.359375 409.652344 209.382813 408.230469 208.621094 406.417969 C 207.855469 404.605469 207.464844 402.289063 207.464844 399.46875 C 207.464844 395.410156 208.007813 392.433594 209.101563 390.554688 C 210.195313 388.671875 211.949219 387.207031 214.386719 386.144531 C 216.824219 385.082031 219.753906 384.554688 223.203125 384.554688 C 226.96875 384.554688 230.171875 385.136719 232.832031 386.289063 C 235.480469 387.453125 237.234375 388.90625 238.09375 390.675781 C 238.953125 392.433594 239.386719 395.421875 239.386719 399.636719 Z M 196.839844 385.628906 L 196.839844 428.121094 L 205.59375 428.121094 L 205.59375 438.730469 L 182.289063 438.730469 L 182.289063 385.628906 Z M 162.28125 399.3125 C 162.28125 396.851563 162.140625 395.273438 161.855469 394.582031 C 161.574219 393.898438 160.996094 393.550781 160.125 393.550781 C 159.382813 393.550781 158.816406 393.832031 158.417969 394.390625 C 158.03125 394.9375 157.828125 396.582031 157.828125 399.3125 L 157.828125 424.09375 C 157.828125 427.171875 157.960938 429.074219 158.21875 429.789063 C 158.476563 430.515625 159.078125 430.875 160.019531 430.875 C 160.984375 430.875 161.609375 430.460938 161.878906 429.632813 C 162.148438 428.804688 162.28125 426.824219 162.28125 423.703125 Z M 176.828125 416.757813 C 176.828125 422.09375 176.699219 425.863281 176.425781 428.078125 C 176.167969 430.304688 175.34375 432.328125 173.953125 434.164063 C 172.566406 436 170.683594 437.410156 168.316406 438.394531 C 165.953125 439.378906 163.199219 439.871094 160.054688 439.871094 C 157.0625 439.871094 154.394531 439.402344 152.015625 438.472656 C 149.636719 437.542969 147.71875 436.15625 146.285156 434.300781 C 144.835938 432.441406 143.976563 430.417969 143.691406 428.234375 C 143.421875 426.042969 143.28125 422.214844 143.28125 416.757813 L 143.28125 407.671875 C 143.28125 402.335938 143.410156 398.5625 143.683594 396.347656 C 143.941406 394.121094 144.765625 392.097656 146.152344 390.261719 C 147.542969 388.425781 149.425781 387.015625 151.789063 386.03125 C 154.15625 385.046875 156.910156 384.554688 160.054688 384.554688 C 163.046875 384.554688 165.714844 385.027344 168.09375 385.953125 C 170.472656 386.882813 172.390625 388.269531 173.828125 390.128906 C 175.273438 391.984375 176.132813 394.011719 176.414063 396.191406 C 176.6875 398.386719 176.828125 402.210938 176.828125 407.671875 Z M 119.257813 414.765625 L 119.257813 429.667969 C 121.257813 429.601563 122.542969 429.296875 123.097656 428.75 C 123.648438 428.199219 123.921875 426.847656 123.921875 424.699219 L 123.921875 419.730469 C 123.921875 417.449219 123.671875 416.074219 123.175781 415.582031 C 122.683594 415.101563 121.378906 414.832031 119.257813 414.765625 M 119.257813 394.691406 L 119.257813 406.507813 C 119.871094 406.484375 120.339844 406.472656 120.683594 406.472656 C 122.070313 406.472656 122.964844 406.136719 123.34375 405.476563 C 123.730469 404.808594 123.921875 402.894531 123.921875 399.75 C 123.921875 398.082031 123.765625 396.917969 123.449219 396.246094 C 123.128906 395.589844 122.71875 395.160156 122.214844 394.984375 C 121.707031 394.816406 120.71875 394.714844 119.257813 394.691406 M 104.710938 385.628906 L 119.164063 385.628906 C 123.730469 385.628906 127.191406 385.964844 129.546875 386.648438 C 131.898438 387.320313 133.796875 388.695313 135.242188 390.753906 C 136.691406 392.824219 137.410156 396.148438 137.410156 400.734375 C 137.410156 403.832031 136.902344 405.992188 135.878906 407.210938 C 134.855469 408.441406 132.828125 409.371094 129.816406 410.03125 C 133.183594 410.757813 135.464844 411.957031 136.664063 413.621094 C 137.867188 415.300781 138.46875 417.863281 138.46875 421.332031 L 138.46875 426.253906 C 138.46875 429.847656 138.03125 432.496094 137.171875 434.230469 C 136.3125 435.953125 134.949219 437.140625 133.0625 437.777344 C 131.183594 438.414063 127.320313 438.730469 121.480469 438.730469 L 104.710938 438.730469 "/>
<path style="fill:none;stroke-width:2.16;stroke-linecap:butt;stroke-linejoin:miter;stroke:rgb(11.799622%,7.499695%,5.899048%);stroke-opacity:1;stroke-miterlimit:22.926;" d="M 4051.484375 1098.267188 L 4293.75 1098.267188 L 4293.75 992.173438 L 4196.992188 992.173438 L 4196.992188 890.845313 L 4287.382813 890.845313 L 4287.382813 790.142188 L 4196.992188 790.142188 L 4196.992188 673.345313 L 4303.632813 673.345313 L 4303.632813 567.251563 L 4051.484375 567.251563 Z M 4016.5625 1098.267188 L 4016.5625 992.173438 L 3931.09375 992.173438 L 3931.09375 567.251563 L 3785.625 567.251563 L 3785.625 992.173438 L 3699.492188 992.173438 L 3699.492188 1098.267188 Z M 3664.21875 1098.267188 L 3664.21875 567.251563 L 3537.070313 567.251563 L 3461.484375 808.696875 L 3461.484375 567.251563 L 3340.039063 567.251563 L 3340.039063 1098.267188 L 3461.484375 1098.267188 L 3542.734375 859.165625 L 3542.734375 1098.267188 Z M 3044.84375 1098.267188 L 3287.109375 1098.267188 L 3287.109375 992.173438 L 3190.351563 992.173438 L 3190.351563 890.845313 L 3280.742188 890.845313 L 3280.742188 790.142188 L 3190.351563 790.142188 L 3190.351563 673.345313 L 3296.992188 673.345313 L 3296.992188 567.251563 L 3044.84375 567.251563 Z M 2798.28125 1007.642188 L 2798.28125 657.876563 C 2818.90625 657.876563 2831.601563 661.939063 2836.328125 669.86875 C 2841.132813 677.915625 2843.515625 699.634375 2843.515625 735.103125 L 2843.515625 941.626563 C 2843.515625 965.689063 2842.65625 981.11875 2841.132813 987.954688 C 2839.492188 994.751563 2835.9375 999.673438 2830.195313 1002.8375 C 2824.53125 1006.079688 2813.945313 1007.642188 2798.28125 1007.642188 Z M 2652.8125 1098.267188 L 2761.445313 1098.267188 C 2831.484375 1098.267188 2878.945313 1095.259375 2903.632813 1089.0875 C 2928.359375 1082.915625 2947.1875 1072.876563 2960.039063 1058.892188 C 2972.851563 1044.907813 2980.976563 1029.321875 2984.140625 1012.2125 C 2987.304688 994.985938 2988.984375 961.314063 2988.984375 910.9625 L 2988.984375 725.025 C 2988.984375 677.36875 2986.601563 645.454688 2981.914063 629.478125 C 2977.1875 613.345313 2968.945313 600.728125 2957.304688 591.665625 C 2945.546875 582.603125 2931.054688 576.314063 2913.789063 572.642188 C 2896.5625 569.048438 2870.585938 567.251563 2835.859375 567.251563 L 2652.8125 567.251563 Z M 2593.046875 567.251563 L 2447.578125 567.251563 L 2447.578125 1098.267188 L 2593.046875 1098.267188 Z M 2387.8125 937.134375 L 2252.890625 937.134375 L 2252.890625 976.43125 C 2252.890625 994.751563 2251.132813 1006.509375 2247.734375 1011.548438 C 2244.296875 1016.5875 2238.671875 1019.048438 2230.664063 1019.048438 C 2221.953125 1019.048438 2215.351563 1015.689063 2210.898438 1008.853125 C 2206.40625 1002.134375 2204.179688 991.978125 2204.179688 978.228125 C 2204.179688 960.532813 2206.757813 947.2125 2211.835938 938.267188 C 2216.757813 929.439063 2230.429688 918.579688 2252.890625 905.80625 C 2317.304688 869.24375 2357.890625 839.126563 2374.609375 815.767188 C 2391.445313 792.36875 2399.804688 754.673438 2399.804688 702.759375 C 2399.804688 664.946875 2395.078125 637.095313 2385.78125 619.048438 C 2376.484375 601.157813 2358.59375 586.157813 2331.875 574.0875 C 2305.273438 561.9 2274.335938 555.845313 2238.90625 555.845313 C 2200.039063 555.845313 2166.992188 562.915625 2139.414063 576.9 C 2111.992188 590.884375 2094.101563 608.657813 2085.507813 630.259375 C 2077.03125 651.978125 2072.8125 682.720313 2072.8125 722.446875 L 2072.8125 757.251563 L 2207.695313 757.251563 L 2207.695313 692.68125 C 2207.695313 672.759375 2209.609375 660.025 2213.359375 654.321875 C 2217.148438 648.61875 2223.828125 645.80625 2233.476563 645.80625 C 2243.125 645.80625 2250.3125 649.4 2255.039063 656.665625 C 2259.726563 663.814063 2262.109375 674.55625 2262.109375 688.657813 C 2262.109375 719.86875 2257.617188 740.3375 2248.671875 749.86875 C 2239.375 759.478125 2216.757813 775.571875 2180.742188 798.189063 C 2144.726563 820.884375 2120.9375 837.446875 2109.179688 847.759375 C 2097.539063 858.032813 2087.773438 872.251563 2080.117188 890.376563 C 2072.460938 908.501563 2068.554688 931.665625 2068.554688 959.86875 C 2068.554688 1000.454688 2073.984375 1030.220313 2084.921875 1049.048438 C 2095.898438 1067.8375 2113.4375 1082.485938 2137.773438 1093.110938 C 2162.148438 1103.735938 2191.445313 1109.009375 2225.9375 1109.009375 C 2263.59375 1109.009375 2295.625 1103.189063 2322.226563 1091.665625 C 2348.710938 1080.025 2366.25 1065.49375 2374.84375 1047.798438 C 2383.4375 1030.220313 2387.8125 1000.376563 2387.8125 958.189063 Z M 1785.390625 1098.267188 L 2027.65625 1098.267188 L 2027.65625 992.173438 L 1930.898438 992.173438 L 1930.898438 890.845313 L 2021.289063 890.845313 L 2021.289063 790.142188 L 1930.898438 790.142188 L 1930.898438 673.345313 L 2037.539063 673.345313 L 2037.539063 567.251563 L 1785.390625 567.251563 Z M 1548.828125 1007.642188 L 1548.828125 889.478125 C 1565.078125 889.478125 1576.40625 891.626563 1582.851563 895.845313 C 1589.335938 900.103125 1592.65625 914.009375 1592.65625 937.36875 L 1592.65625 966.5875 C 1592.65625 983.4625 1589.453125 994.55625 1583.203125 999.790625 C 1576.992188 1005.064063 1565.46875 1007.642188 1548.828125 1007.642188 Z M 1403.359375 1098.267188 L 1506.132813 1098.267188 C 1574.648438 1098.267188 1621.015625 1095.80625 1645.234375 1090.767188 C 1669.492188 1085.728125 1689.257813 1072.876563 1704.570313 1052.173438 C 1719.882813 1031.5875 1727.539063 998.579688 1727.539063 953.384375 C 1727.539063 912.095313 1722.109375 884.321875 1711.289063 870.142188 C 1700.585938 855.923438 1679.257813 847.407813 1647.460938 844.634375 C 1676.210938 837.798438 1695.625 828.735938 1705.507813 817.329688 C 1715.390625 806.001563 1721.523438 795.49375 1723.867188 786.001563 C 1726.328125 776.470313 1727.539063 750.298438 1727.539063 707.446875 L 1727.539063 567.251563 L 1592.65625 567.251563 L 1592.65625 743.93125 C 1592.65625 772.36875 1590.273438 789.907813 1585.585938 796.74375 C 1580.976563 803.579688 1568.75 806.939063 1548.828125 806.939063 L 1548.828125 567.251563 L 1403.359375 567.251563 Z M 1192.578125 1007.642188 L 1192.578125 872.36875 C 1196.71875 872.134375 1200.234375 872.017188 1203.164063 872.017188 C 1216.484375 872.017188 1225.664063 875.18125 1230.859375 881.43125 C 1235.898438 887.564063 1238.476563 900.571875 1238.476563 920.259375 L 1238.476563 964.009375 C 1238.476563 982.134375 1235.546875 994.009375 1229.53125 999.478125 C 1223.671875 1004.946875 1211.289063 1007.642188 1192.578125 1007.642188 Z M 1047.109375 1098.267188 L 1193.398438 1098.267188 C 1232.96875 1098.267188 1263.320313 1095.3375 1284.648438 1089.439063 C 1305.820313 1083.501563 1321.835938 1074.985938 1332.539063 1063.892188 C 1343.242188 1052.720313 1350.429688 1039.204688 1354.296875 1023.423438 C 1358.085938 1007.525 1359.960938 983.032813 1359.960938 949.790625 L 1359.960938 903.579688 C 1359.960938 869.790625 1356.328125 845.064063 1348.90625 829.634375 C 1341.601563 814.0875 1328.085938 802.095313 1308.515625 793.814063 C 1288.867188 785.532813 1263.203125 781.392188 1231.5625 781.392188 L 1192.578125 781.392188 L 1192.578125 567.251563 L 1047.109375 567.251563 Z M 4144.84375 1583.775 C 4144.84375 1608.384375 4143.4375 1624.165625 4140.625 1631.079688 C 4137.773438 1637.915625 4132.03125 1641.392188 4123.28125 1641.392188 C 4115.898438 1641.392188 4110.234375 1638.579688 4106.25 1632.99375 C 4102.34375 1627.525 4100.351563 1611.079688 4100.351563 1583.775 L 4100.351563 1335.9625 C 4100.351563 1305.18125 4101.640625 1286.157813 4104.257813 1279.009375 C 4106.835938 1271.74375 4112.851563 1268.15 4122.265625 1268.15 C 4131.914063 1268.15 4138.125 1272.290625 4140.859375 1280.571875 C 4143.554688 1288.853125 4144.84375 1308.657813 4144.84375 1339.86875 Z M 4290.351563 1409.321875 C 4290.351563 1355.9625 4289.023438 1318.267188 4286.328125 1296.11875 C 4283.75 1273.853125 4275.507813 1253.61875 4261.601563 1235.259375 C 4247.734375 1216.9 4228.90625 1202.798438 4205.234375 1192.954688 C 4181.5625 1183.110938 4154.023438 1178.189063 4122.617188 1178.189063 C 4092.695313 1178.189063 4065.976563 1182.876563 4042.1875 1192.173438 C 4018.4375 1201.470313 3999.257813 1215.3375 3984.882813 1233.892188 C 3970.390625 1252.485938 3961.835938 1272.720313 3958.984375 1294.55625 C 3956.289063 1316.470313 3954.882813 1354.751563 3954.882813 1409.321875 L 3954.882813 1500.18125 C 3954.882813 1553.540625 3956.171875 1591.275 3958.867188 1613.423438 C 3961.445313 1635.689063 3969.6875 1655.923438 3983.59375 1674.282813 C 3997.460938 1692.642188 4016.328125 1706.74375 4039.960938 1716.5875 C 4063.632813 1726.43125 4091.171875 1731.353125 4122.617188 1731.353125 C 4152.5 1731.353125 4179.21875 1726.626563 4203.007813 1717.36875 C 4226.757813 1708.071875 4245.9375 1694.204688 4260.3125 1675.610938 C 4274.804688 1657.05625 4283.398438 1636.782813 4286.210938 1614.985938 C 4288.90625 1593.032813 4290.351563 1554.790625 4290.351563 1500.18125 Z M 3724.296875 1629.985938 L 3724.296875 1511.821875 C 3740.546875 1511.821875 3751.835938 1513.93125 3758.28125 1518.189063 C 3764.804688 1522.446875 3768.085938 1536.314063 3768.085938 1559.7125 L 3768.085938 1588.892188 C 3768.085938 1605.80625 3764.882813 1616.860938 3758.671875 1622.134375 C 3752.421875 1627.407813 3740.898438 1629.985938 3724.296875 1629.985938 Z M 3578.789063 1720.610938 L 3681.5625 1720.610938 C 3750.078125 1720.610938 3796.445313 1718.15 3820.703125 1713.110938 C 3844.921875 1708.071875 3864.726563 1695.18125 3880.039063 1674.517188 C 3895.3125 1653.93125 3902.96875 1620.923438 3902.96875 1575.728125 C 3902.96875 1534.439063 3897.539063 1506.665625 3886.71875 1492.485938 C 3876.015625 1478.267188 3854.6875 1469.751563 3822.929688 1466.978125 C 3851.640625 1460.142188 3871.054688 1451.079688 3880.9375 1439.673438 C 3890.859375 1428.345313 3896.953125 1417.8375 3899.335938 1408.345313 C 3901.796875 1398.814063 3902.96875 1372.642188 3902.96875 1329.790625 L 3902.96875 1189.595313 L 3768.085938 1189.595313 L 3768.085938 1366.275 C 3768.085938 1394.673438 3765.742188 1412.251563 3761.015625 1419.0875 C 3756.445313 1425.884375 3744.179688 1429.24375 3724.296875 1429.24375 L 3724.296875 1189.595313 L 3578.789063 1189.595313 Z M 3393.671875 1378.892188 C 3386.71875 1439.0875 3379.414063 1513.61875 3371.640625 1602.564063 C 3357.304688 1500.532813 3348.242188 1426.001563 3344.335938 1378.892188 Z M 3470.742188 1720.610938 L 3553.867188 1189.595313 L 3405.429688 1189.595313 L 3397.539063 1284.946875 L 3345.15625 1284.946875 L 3337.265625 1189.595313 L 3186.953125 1189.595313 L 3260.664063 1720.610938 Z M 3161.875 1720.610938 L 3161.875 1189.595313 L 3034.765625 1189.595313 L 2959.21875 1431.040625 L 2959.21875 1189.595313 L 2837.734375 1189.595313 L 2837.734375 1720.610938 L 2959.21875 1720.610938 L 3040.429688 1481.509375 L 3040.429688 1720.610938 Z M 2637.65625 1583.775 C 2637.65625 1608.384375 2636.210938 1624.165625 2633.398438 1631.079688 C 2630.585938 1637.915625 2624.804688 1641.392188 2616.09375 1641.392188 C 2608.671875 1641.392188 2603.046875 1638.579688 2599.023438 1632.99375 C 2595.15625 1627.525 2593.125 1611.079688 2593.125 1583.775 L 2593.125 1335.9625 C 2593.125 1305.18125 2594.453125 1286.157813 2597.03125 1279.009375 C 2599.648438 1271.74375 2605.625 1268.15 2615.039063 1268.15 C 2624.6875 1268.15 2630.9375 1272.290625 2633.632813 1280.571875 C 2636.328125 1288.853125 2637.65625 1308.657813 2637.65625 1339.86875 Z M 2783.125 1409.321875 C 2783.125 1355.9625 2781.835938 1318.267188 2779.140625 1296.11875 C 2776.523438 1273.853125 2768.28125 1253.61875 2754.414063 1235.259375 C 2740.507813 1216.9 2721.679688 1202.798438 2698.007813 1192.954688 C 2674.375 1183.110938 2646.835938 1178.189063 2615.390625 1178.189063 C 2585.507813 1178.189063 2558.789063 1182.876563 2535 1192.173438 C 2511.210938 1201.470313 2492.03125 1215.3375 2477.695313 1233.892188 C 2463.203125 1252.485938 2454.609375 1272.720313 2451.796875 1294.55625 C 2449.0625 1316.470313 2447.65625 1354.751563 2447.65625 1409.321875 L 2447.65625 1500.18125 C 2447.65625 1553.540625 2448.945313 1591.275 2451.640625 1613.423438 C 2454.257813 1635.689063 2462.5 1655.923438 2476.40625 1674.282813 C 2490.273438 1692.642188 2509.101563 1706.74375 2532.773438 1716.5875 C 2556.445313 1726.43125 2583.945313 1731.353125 2615.390625 1731.353125 C 2645.3125 1731.353125 2671.992188 1726.626563 2695.78125 1717.36875 C 2719.570313 1708.071875 2738.75 1694.204688 2753.125 1675.610938 C 2767.578125 1657.05625 2776.171875 1636.782813 2778.984375 1614.985938 C 2781.71875 1593.032813 2783.125 1554.790625 2783.125 1500.18125 Z M 2393.867188 1559.478125 L 2258.984375 1559.478125 L 2258.984375 1598.775 C 2258.984375 1617.095313 2257.226563 1628.853125 2253.789063 1633.892188 C 2250.390625 1638.93125 2244.765625 1641.392188 2236.71875 1641.392188 C 2228.007813 1641.392188 2221.445313 1638.032813 2216.953125 1631.196875 C 2212.5 1624.478125 2210.234375 1614.321875 2210.234375 1600.532813 C 2210.234375 1582.876563 2212.851563 1569.55625 2217.890625 1560.610938 C 2222.851563 1551.782813 2236.484375 1540.923438 2258.984375 1528.15 C 2323.359375 1491.5875 2363.984375 1461.470313 2380.703125 1438.110938 C 2397.539063 1414.7125 2405.898438 1377.017188 2405.898438 1325.103125 C 2405.898438 1287.290625 2401.171875 1259.439063 2391.875 1241.392188 C 2382.578125 1223.501563 2364.6875 1208.501563 2337.96875 1196.43125 C 2311.367188 1184.24375 2280.390625 1178.189063 2244.960938 1178.189063 C 2206.132813 1178.189063 2173.046875 1185.259375 2145.507813 1199.24375 C 2118.085938 1213.228125 2100.195313 1231.001563 2091.601563 1252.603125 C 2083.125 1274.282813 2078.90625 1305.064063 2078.90625 1344.790625 L 2078.90625 1379.595313 L 2213.789063 1379.595313 L 2213.789063 1315.025 C 2213.789063 1295.103125 2215.664063 1282.36875 2219.414063 1276.665625 C 2223.203125 1270.923438 2229.921875 1268.15 2239.570313 1268.15 C 2249.21875 1268.15 2256.40625 1271.74375 2261.09375 1279.009375 C 2265.820313 1286.157813 2268.164063 1296.9 2268.164063 1311.001563 C 2268.164063 1342.2125 2263.710938 1362.68125 2254.765625 1372.2125 C 2245.46875 1381.821875 2222.851563 1397.915625 2186.835938 1420.532813 C 2150.820313 1443.228125 2127.03125 1459.790625 2115.273438 1470.103125 C 2103.59375 1480.376563 2093.828125 1494.595313 2086.210938 1512.720313 C 2078.554688 1530.845313 2074.648438 1554.009375 2074.648438 1582.2125 C 2074.648438 1622.798438 2080.078125 1652.564063 2091.015625 1671.353125 C 2101.953125 1690.18125 2119.492188 1704.829688 2143.867188 1715.454688 C 2168.242188 1726.079688 2197.539063 1731.353125 2232.03125 1731.353125 C 2269.6875 1731.353125 2301.71875 1725.532813 2328.320313 1714.009375 C 2354.804688 1702.36875 2372.34375 1687.8375 2380.9375 1670.142188 C 2389.53125 1652.564063 2393.867188 1622.68125 2393.867188 1580.532813 Z M 1968.398438 1720.610938 L 1968.398438 1295.689063 L 2055.9375 1295.689063 L 2055.9375 1189.595313 L 1822.890625 1189.595313 L 1822.890625 1720.610938 Z M 1622.8125 1583.775 C 1622.8125 1608.384375 1621.40625 1624.165625 1618.554688 1631.079688 C 1615.742188 1637.915625 1609.960938 1641.392188 1601.25 1641.392188 C 1593.828125 1641.392188 1588.164063 1638.579688 1584.179688 1632.99375 C 1580.3125 1627.525 1578.28125 1611.079688 1578.28125 1583.775 L 1578.28125 1335.9625 C 1578.28125 1305.18125 1579.609375 1286.157813 1582.1875 1279.009375 C 1584.765625 1271.74375 1590.78125 1268.15 1600.195313 1268.15 C 1609.84375 1268.15 1616.09375 1272.290625 1618.789063 1280.571875 C 1621.484375 1288.853125 1622.8125 1308.657813 1622.8125 1339.86875 Z M 1768.28125 1409.321875 C 1768.28125 1355.9625 1766.992188 1318.267188 1764.257813 1296.11875 C 1761.679688 1273.853125 1753.4375 1253.61875 1739.53125 1235.259375 C 1725.664063 1216.9 1706.835938 1202.798438 1683.164063 1192.954688 C 1659.53125 1183.110938 1631.992188 1178.189063 1600.546875 1178.189063 C 1570.625 1178.189063 1543.945313 1182.876563 1520.15625 1192.173438 C 1496.367188 1201.470313 1477.1875 1215.3375 1462.851563 1233.892188 C 1448.359375 1252.485938 1439.765625 1272.720313 1436.914063 1294.55625 C 1434.21875 1316.470313 1432.8125 1354.751563 1432.8125 1409.321875 L 1432.8125 1500.18125 C 1432.8125 1553.540625 1434.101563 1591.275 1436.835938 1613.423438 C 1439.414063 1635.689063 1447.65625 1655.923438 1461.523438 1674.282813 C 1475.429688 1692.642188 1494.257813 1706.74375 1517.890625 1716.5875 C 1541.5625 1726.43125 1569.101563 1731.353125 1600.546875 1731.353125 C 1630.46875 1731.353125 1657.148438 1726.626563 1680.9375 1717.36875 C 1704.726563 1708.071875 1723.90625 1694.204688 1738.28125 1675.610938 C 1752.734375 1657.05625 1761.328125 1636.782813 1764.140625 1614.985938 C 1766.875 1593.032813 1768.28125 1554.790625 1768.28125 1500.18125 Z M 1192.578125 1429.24375 L 1192.578125 1280.220313 C 1212.578125 1280.884375 1225.429688 1283.93125 1230.976563 1289.4 C 1236.484375 1294.907813 1239.21875 1308.423438 1239.21875 1329.907813 L 1239.21875 1379.595313 C 1239.21875 1402.407813 1236.71875 1416.157813 1231.757813 1421.079688 C 1226.835938 1425.884375 1213.789063 1428.579688 1192.578125 1429.24375 Z M 1192.578125 1629.985938 L 1192.578125 1511.821875 C 1198.710938 1512.05625 1203.398438 1512.173438 1206.835938 1512.173438 C 1220.703125 1512.173438 1229.648438 1515.532813 1233.4375 1522.134375 C 1237.304688 1528.814063 1239.21875 1547.954688 1239.21875 1579.4 C 1239.21875 1596.079688 1237.65625 1607.720313 1234.492188 1614.439063 C 1231.289063 1621.001563 1227.1875 1625.298438 1222.148438 1627.05625 C 1217.070313 1628.735938 1207.1875 1629.751563 1192.578125 1629.985938 Z M 1047.109375 1720.610938 L 1191.640625 1720.610938 C 1237.304688 1720.610938 1271.914063 1717.251563 1295.46875 1710.415625 C 1318.984375 1703.696875 1337.96875 1689.946875 1352.421875 1669.360938 C 1366.914063 1648.657813 1374.101563 1615.415625 1374.101563 1569.55625 C 1374.101563 1538.579688 1369.023438 1516.978125 1358.789063 1504.790625 C 1348.554688 1492.485938 1328.28125 1483.189063 1298.164063 1476.5875 C 1331.835938 1469.321875 1354.648438 1457.329688 1366.640625 1440.689063 C 1378.671875 1423.892188 1384.6875 1398.267188 1384.6875 1363.579688 L 1384.6875 1314.360938 C 1384.6875 1278.423438 1380.3125 1251.939063 1371.71875 1234.595313 C 1363.125 1217.36875 1349.492188 1205.49375 1330.625 1199.126563 C 1311.835938 1192.759375 1273.203125 1189.595313 1214.804688 1189.595313 L 1047.109375 1189.595313 Z M 1047.109375 1720.610938 " transform="matrix(0.1,0,0,-0.1,0,557.69)"/>
<g clip-path="url(#clip1)" clip-rule="nonzero">
<path style=" stroke:none;fill-rule:evenodd;fill:rgb(87.5%,1.599121%,4.299927%);fill-opacity:1;" d="M 444.417969 435.476563 L 124.617188 90.179688 C 164.148438 57.617188 214.113281 38.117188 268.488281 38.117188 C 396.5 38.117188 500.269531 145.898438 500.269531 278.84375 C 500.269531 338.679688 479.207031 393.367188 444.417969 435.476563 M 36.703125 278.84375 C 36.703125 219.015625 57.769531 164.324219 92.554688 122.214844 L 412.355469 467.519531 C 372.820313 500.078125 322.859375 519.570313 268.488281 519.570313 C 140.476563 519.570313 36.703125 411.796875 36.703125 278.84375 M 268.488281 0 C 120.203125 0 0 124.84375 0 278.84375 C 0 432.847656 120.203125 557.691406 268.488281 557.691406 C 416.769531 557.691406 536.972656 432.847656 536.972656 278.84375 C 536.972656 124.84375 416.769531 0 268.488281 0 "/>
</g>
</g>
</svg>
