<?xml version="1.0"?>
<svg xmlns:rdf="http://www.w3.org/1999/02/22-rdf-syntax-ns#" xmlns="http://www.w3.org/2000/svg" xmlns:cc="http://creativecommons.org/ns#" xmlns:dc="http://purl.org/dc/elements/1.1/" xmlns:svg="http://www.w3.org/2000/svg" id="svg3209" viewBox="0 0 298 438" version="1.0">
  <g id="layer1" transform="translate(-133.53 -148.1)">
    <g id="g3792" fill-rule="evenodd">
      <path id="path3234" fill="#00923e" d="m146.35 172.14c15.76-5.41 31.59-10.47 47.91-14.03 15.04-3.28 30.39-5.17 45.74-5.86 18.32-0.82 36.87-1.65 55.06 0.61 14.29 1.78 28.64 3.54 42.35 8.42 9.93 3.53 18.18 10.03 26.62 15.99 8.41 5.93 16.92 12.71 22.29 21.47 2.77 4.52 5.96 10.48 1.88 15.43-3.97 4.81-9.53 10.41-7.16 17.24 2.59 7.45 11.03 10.79 17.77 13.91 12.12 5.59 24.61 13.59 28.74 26.99 4.29 13.91-3.12 29.2-9.04 39.91s-8.82 20.84-13.49 29.28-2.94 16.34-4.55 24.36c-0.96 4.8-3.07 9.05-3.74 13.99-1.26 9.18-1.88 18.65-1.98 27.99-0.12 10.18-3.05 22.49-11.11 27.3-3.33 1.99-2.8-8.84-0.12-11.83 3.51-3.92 8.09-10.18 3.74-15.31-6.93-8.16-19.01-7.36-28.59-10.24-10.07-3.03-22.29-3.64-29.68-11.64-4.69-5.08 0.88-12.53 5.46-15.65 4.01-2.72 9.22-5.87 2.45-9.3-6.04-3.06-13.04-2.84-19.61-3.26-23.92-1.52-48.03-0.32-72.03 0.12-25.32 0.47-49.73 7.87-73.76 15.26-8.38-67.05-16.77-134.1-25.15-201.15z"/>
      <path id="path3749" fill="#fff" d="m244.91 255.37s4.5-5.47 6.64-6.62c2.72-1.45 6.57-2.97 9.54-3.76 2.97-0.78 7.05-1.44 10.12-1.44 40.03-3.2 56.1 26.07 46.19 62.09-0.59 1.71-1.73 7.78-1.73 7.78s8.04-8.84 11.9-12.67c1.9-1.89 3.69-5.2 4.33-7.8 0.92-3.71 0.12-9.11-0.29-12.72-1.27-13.73-6.62-24.9-16.47-34.39-15.73-15.8-36.33-18.18-56.94-11.28 0 0-7.45 4.42-10.4 6.65-0.84 0.63-2.6 2.31-2.6 2.31l-0.29 11.85z"/>
      <path id="path3236" fill="#f8c100" d="m295.19 187.74l-127.75 69.94s46.82 23.59 66.5 34.4c18.29 10.04 60.09 34.97 60.09 34.97l65.63-30.62 0.56 0.56s-0.66 6.74-1.44 9.53c-0.91 3.26-3.72 7.08-4.34 10.41-0.62 3.32 0.28 11.28 0.28 11.28l41.34-10.41s-2.52-6.02-4.03-8.37c-3.75-5.87-11.06-13.48-14.75-17.94-3.69-4.47-9.84-11.85-9.84-11.85l7.53-26-79.78-65.9zm-0.57 23.12c26.65 0 48.26 22.4 48.26 50s-21.61 50-48.26 50c-26.64 0-48.28-22.4-48.28-50s21.64-50 48.28-50z"/>
      <path id="path3238" fill="#00006f" d="m294.62 210.86c-19 0-35.44 11.42-43.31 27.97 3.21-2.07 6.88-4.28 6.88-4.28 20.61-6.9 41.21-4.51 56.93 11.28 9.86 9.5 15.24 20.68 16.5 34.41 0.4 3.46 1.13 8.57 0.38 12.25 6.8-8.62 10.88-19.64 10.88-31.63 0-27.6-21.61-50-48.26-50zm-19.71 32.47c-1.21 0.04-2.44 0.12-3.69 0.22-3.07 0-7.16 0.65-10.13 1.44-2.97 0.78-6.82 2.3-9.53 3.75-1.22 0.65-3.14 2.66-4.62 4.31-0.39 2.55-0.6 5.15-0.6 7.81 0 27.6 21.64 50 48.28 50 8.32 0 16.14-2.19 22.97-6.03h0.03c9.15-34.52-5.67-62.65-42.71-61.5z"/>
      <path id="path3232" fill="#501a08" d="m187.25 582.92l-50.72-416.27 1.48-1.59 7.49-0.58 12.31 93.33 40.43 323.38-1.3 2.02-7.37 1.3-2.32-1.59z"/>
    </g>
  </g>
  <metadata>
    <rdf:RDF>
      <cc:Work>
        <dc:format>image/svg+xml</dc:format>
        <dc:type rdf:resource="http://purl.org/dc/dcmitype/StillImage"/>
        <cc:license rdf:resource="http://creativecommons.org/licenses/publicdomain/"/>
        <dc:publisher>
          <cc:Agent rdf:about="http://openclipart.org/">
            <dc:title>Openclipart</dc:title>
          </cc:Agent>
        </dc:publisher>
        <dc:title>Flag of Brazil</dc:title>
        <dc:date>2009-10-05T23:03:58</dc:date>
        <dc:description>The flag of Brazil.</dc:description>
        <dc:source>http://openclipart.org/detail/27685/flag-of-brazil-by-laobc</dc:source>
        <dc:creator>
          <cc:Agent>
            <dc:title>laobc</dc:title>
          </cc:Agent>
        </dc:creator>
        <dc:subject>
          <rdf:Bag>
            <rdf:li>brazil</rdf:li>
            <rdf:li>clip art</rdf:li>
            <rdf:li>clipart</rdf:li>
            <rdf:li>flag</rdf:li>
            <rdf:li>image</rdf:li>
            <rdf:li>media</rdf:li>
            <rdf:li>pole</rdf:li>
            <rdf:li>public domain</rdf:li>
            <rdf:li>svg</rdf:li>
          </rdf:Bag>
        </dc:subject>
      </cc:Work>
      <cc:License rdf:about="http://creativecommons.org/licenses/publicdomain/">
        <cc:permits rdf:resource="http://creativecommons.org/ns#Reproduction"/>
        <cc:permits rdf:resource="http://creativecommons.org/ns#Distribution"/>
        <cc:permits rdf:resource="http://creativecommons.org/ns#DerivativeWorks"/>
      </cc:License>
    </rdf:RDF>
  </metadata>
</svg>
